<?xml version="1.0" encoding="UTF-8"?>
<svg xmlns="http://www.w3.org/2000/svg" xmlns:xlink="http://www.w3.org/1999/xlink" width="600.514189pt" height="501.3069pt" viewBox="0 0 600.514189 501.3069" version="1.1">
<defs>
<clipPath id="clip1">
  <path d="M 0 1 L 599 1 L 599 501.308594 L 0 501.308594 Z M 0 1 "/>
</clipPath>
<clipPath id="clip2">
  <path d="M 0.0976562 1.59375 L 598.984375 1.59375 L 598.984375 601.585938 L 0.0976562 601.585938 Z M 395.394531 552.824219 C 395.117188 552.824219 394.875 552.925781 394.683594 553.113281 C 394.476562 553.300781 394.378906 553.554688 394.378906 553.851562 C 394.378906 554.257812 394.558594 554.644531 394.910156 555.023438 C 395.253906 555.398438 395.746094 555.707031 396.394531 555.949219 C 397.035156 556.191406 397.761719 556.308594 398.589844 556.308594 C 399.480469 556.308594 400.230469 556.210938 400.832031 556.03125 C 401.425781 555.839844 401.914062 555.550781 402.28125 555.164062 C 402.648438 554.777344 402.921875 554.292969 403.089844 553.691406 C 403.253906 553.105469 403.34375 552.394531 403.34375 551.574219 L 403.34375 544.367188 C 403.34375 543.78125 403.269531 543.332031 403.117188 543.015625 C 402.964844 542.699219 402.667969 542.546875 402.199219 542.546875 C 401.886719 542.546875 401.625 542.664062 401.425781 542.898438 C 401.21875 543.140625 401.121094 543.476562 401.121094 543.90625 L 401.121094 544.238281 C 400.695312 543.664062 400.238281 543.242188 399.742188 542.96875 C 399.25 542.699219 398.664062 542.566406 397.996094 542.566406 C 397.429688 542.566406 396.917969 542.671875 396.449219 542.878906 C 395.980469 543.085938 395.558594 543.402344 395.207031 543.808594 C 394.839844 544.222656 394.566406 544.726562 394.378906 545.328125 C 394.171875 545.921875 394.082031 546.597656 394.082031 547.34375 C 394.082031 548.34375 394.246094 549.226562 394.558594 549.980469 C 394.875 550.753906 395.332031 551.339844 395.925781 551.765625 C 396.519531 552.195312 397.214844 552.402344 398.015625 552.402344 C 398.671875 552.402344 399.25 552.269531 399.726562 551.988281 C 400.191406 551.710938 400.625 551.304688 400.996094 550.773438 C 400.976562 551.582031 400.957031 552.167969 400.929688 552.539062 C 400.914062 552.90625 400.832031 553.25 400.695312 553.574219 C 400.5625 553.886719 400.320312 554.140625 399.984375 554.320312 C 399.644531 554.492188 399.167969 554.582031 398.554688 554.582031 C 398.25 554.582031 397.980469 554.554688 397.753906 554.5 C 397.519531 554.4375 397.320312 554.355469 397.152344 554.230469 C 396.988281 554.121094 396.835938 553.976562 396.703125 553.808594 C 396.566406 553.644531 396.429688 553.472656 396.304688 553.3125 C 396.042969 552.988281 395.738281 552.824219 395.394531 552.824219 M 191.5625 542.546875 C 191.222656 542.546875 190.953125 542.664062 190.753906 542.898438 C 190.554688 543.132812 190.457031 543.484375 190.457031 543.960938 L 190.457031 554.652344 C 190.457031 555.191406 190.527344 555.605469 190.671875 555.886719 C 190.816406 556.164062 191.113281 556.308594 191.5625 556.308594 C 192.320312 556.308594 192.699219 555.769531 192.699219 554.671875 L 192.699219 550.953125 C 193.121094 551.503906 193.554688 551.917969 194.019531 552.203125 C 194.480469 552.492188 195.046875 552.628906 195.730469 552.628906 C 196.289062 552.628906 196.820312 552.519531 197.304688 552.277344 C 197.800781 552.050781 198.222656 551.71875 198.585938 551.285156 C 198.945312 550.84375 199.230469 550.316406 199.429688 549.667969 C 199.636719 549.035156 199.734375 548.335938 199.734375 547.570312 C 199.734375 546.535156 199.566406 545.644531 199.207031 544.878906 C 198.84375 544.121094 198.359375 543.554688 197.746094 543.160156 C 197.136719 542.765625 196.460938 542.566406 195.730469 542.566406 C 195.121094 542.566406 194.570312 542.699219 194.09375 542.96875 C 193.605469 543.242188 193.148438 543.664062 192.699219 544.238281 L 192.699219 543.941406 C 192.699219 543.492188 192.597656 543.152344 192.382812 542.90625 C 192.175781 542.664062 191.898438 542.546875 191.5625 542.546875 M 388.394531 542.558594 C 387.621094 542.558594 387.234375 543.113281 387.234375 544.222656 L 387.234375 551.125 C 387.234375 551.621094 387.339844 551.996094 387.566406 552.25 C 387.78125 552.5 388.0625 552.628906 388.414062 552.628906 C 388.753906 552.628906 389.042969 552.5 389.265625 552.257812 C 389.492188 552.007812 389.609375 551.628906 389.609375 551.125 L 389.609375 549.054688 C 389.609375 548.308594 389.636719 547.675781 389.679688 547.164062 C 389.726562 546.644531 389.808594 546.203125 389.925781 545.824219 C 390.050781 545.445312 390.222656 545.167969 390.4375 544.976562 C 390.664062 544.78125 390.949219 544.691406 391.292969 544.691406 C 391.554688 544.691406 391.851562 544.742188 392.183594 544.851562 C 392.515625 544.96875 392.722656 545.023438 392.804688 545.023438 C 393.046875 545.023438 393.253906 544.921875 393.460938 544.726562 C 393.660156 544.535156 393.757812 544.285156 393.757812 543.980469 C 393.757812 543.554688 393.523438 543.203125 393.046875 542.945312 C 392.589844 542.691406 392.101562 542.558594 391.597656 542.558594 C 391.101562 542.558594 390.699219 542.691406 390.402344 542.945312 C 390.105469 543.203125 389.816406 543.589844 389.539062 544.09375 C 389.511719 543.589844 389.410156 543.203125 389.238281 542.945312 C 389.070312 542.691406 388.78125 542.558594 388.394531 542.558594 M 380.636719 542.558594 C 379.925781 542.558594 379.285156 542.671875 378.703125 542.917969 C 378.105469 543.152344 377.613281 543.492188 377.199219 543.933594 C 376.792969 544.382812 376.476562 544.914062 376.253906 545.535156 C 376.039062 546.15625 375.921875 546.839844 375.921875 547.597656 C 375.921875 548.34375 376.039062 549.019531 376.246094 549.628906 C 376.46875 550.25 376.785156 550.773438 377.207031 551.234375 C 377.628906 551.683594 378.125 552.023438 378.703125 552.269531 C 379.269531 552.511719 379.917969 552.628906 380.636719 552.628906 C 381.363281 552.628906 382.011719 552.511719 382.597656 552.277344 C 383.175781 552.035156 383.667969 551.691406 384.09375 551.242188 C 384.507812 550.800781 384.820312 550.261719 385.046875 549.640625 C 385.269531 549.007812 385.378906 548.335938 385.378906 547.597656 C 385.378906 546.859375 385.269531 546.175781 385.054688 545.554688 C 384.832031 544.941406 384.515625 544.402344 384.101562 543.960938 C 383.679688 543.511719 383.183594 543.160156 382.597656 542.917969 C 382.003906 542.671875 381.355469 542.558594 380.636719 542.558594 M 372.464844 549.910156 C 372.09375 549.910156 371.789062 550.035156 371.539062 550.296875 C 371.292969 550.566406 371.167969 550.890625 371.167969 551.25 C 371.167969 551.683594 371.304688 552.023438 371.5625 552.269531 C 371.824219 552.511719 372.132812 552.628906 372.492188 552.628906 C 372.84375 552.628906 373.140625 552.511719 373.390625 552.269531 C 373.652344 552.023438 373.789062 551.683594 373.789062 551.25 C 373.789062 550.882812 373.652344 550.558594 373.390625 550.296875 C 373.140625 550.035156 372.824219 549.910156 372.464844 549.910156 M 362.628906 548.984375 C 362.347656 548.984375 362.113281 549.082031 361.925781 549.28125 C 361.734375 549.46875 361.644531 549.703125 361.644531 549.972656 C 361.644531 550.386719 361.789062 550.800781 362.085938 551.207031 C 362.375 551.609375 362.824219 551.953125 363.429688 552.222656 C 364.039062 552.492188 364.777344 552.628906 365.625 552.628906 C 366.515625 552.628906 367.269531 552.5 367.902344 552.257812 C 368.523438 552.007812 368.988281 551.636719 369.3125 551.152344 C 369.636719 550.664062 369.800781 550.082031 369.800781 549.398438 C 369.800781 548.945312 369.675781 548.542969 369.429688 548.183594 C 369.1875 547.832031 368.835938 547.523438 368.371094 547.265625 C 367.902344 547.003906 367.308594 546.777344 366.570312 546.589844 C 365.949219 546.4375 365.460938 546.300781 365.101562 546.191406 C 364.75 546.074219 364.472656 545.941406 364.257812 545.777344 C 364.050781 545.609375 363.941406 545.402344 363.941406 545.140625 C 363.941406 544.851562 364.09375 544.609375 364.375 544.417969 C 364.652344 544.230469 365.011719 544.132812 365.445312 544.132812 C 365.859375 544.132812 366.191406 544.210938 366.433594 544.355469 C 366.675781 544.5 366.894531 544.691406 367.074219 544.933594 C 367.289062 545.21875 367.488281 545.4375 367.65625 545.582031 C 367.828125 545.734375 368.035156 545.804688 368.277344 545.804688 C 368.613281 545.804688 368.875 545.707031 369.0625 545.535156 C 369.242188 545.347656 369.332031 545.121094 369.332031 544.832031 C 369.332031 544.574219 369.25 544.3125 369.082031 544.03125 C 368.910156 543.761719 368.65625 543.519531 368.324219 543.292969 C 368 543.070312 367.585938 542.890625 367.101562 542.753906 C 366.605469 542.621094 366.054688 542.558594 365.445312 542.558594 C 364.660156 542.558594 363.984375 542.691406 363.4375 542.953125 C 362.886719 543.214844 362.464844 543.566406 362.175781 544.015625 C 361.890625 544.445312 361.753906 544.921875 361.753906 545.417969 C 361.753906 545.976562 361.90625 546.445312 362.214844 546.824219 C 362.519531 547.199219 362.933594 547.515625 363.445312 547.75 C 363.960938 547.984375 364.625 548.199219 365.445312 548.414062 C 366.171875 548.59375 366.6875 548.785156 367.011719 548.992188 C 367.316406 549.191406 367.476562 549.503906 367.476562 549.945312 C 367.476562 550.226562 367.324219 550.476562 367.019531 550.703125 C 366.714844 550.917969 366.328125 551.035156 365.847656 551.035156 C 365.265625 551.035156 364.796875 550.925781 364.464844 550.703125 C 364.121094 550.484375 363.832031 550.160156 363.589844 549.710938 C 363.464844 549.488281 363.339844 549.308594 363.203125 549.171875 C 363.066406 549.054688 362.878906 548.984375 362.628906 548.984375 M 355.929688 542.558594 C 355.15625 542.558594 354.777344 543.113281 354.777344 544.222656 L 354.777344 551.125 C 354.777344 551.621094 354.886719 551.996094 355.101562 552.25 C 355.320312 552.5 355.605469 552.628906 355.949219 552.628906 C 356.292969 552.628906 356.578125 552.5 356.804688 552.257812 C 357.039062 552.007812 357.144531 551.628906 357.144531 551.125 L 357.144531 549.054688 C 357.144531 548.308594 357.171875 547.675781 357.21875 547.164062 C 357.261719 546.644531 357.34375 546.203125 357.46875 545.824219 C 357.597656 545.445312 357.765625 545.167969 357.984375 544.976562 C 358.199219 544.78125 358.488281 544.691406 358.828125 544.691406 C 359.089844 544.691406 359.386719 544.742188 359.71875 544.851562 C 360.054688 544.96875 360.261719 545.023438 360.351562 545.023438 C 360.585938 545.023438 360.800781 544.921875 361 544.726562 C 361.195312 544.535156 361.296875 544.285156 361.296875 543.980469 C 361.296875 543.554688 361.0625 543.203125 360.59375 542.945312 C 360.125 542.691406 359.640625 542.558594 359.136719 542.558594 C 358.640625 542.558594 358.246094 542.691406 357.945312 542.945312 C 357.648438 543.203125 357.351562 543.589844 357.074219 544.09375 C 357.046875 543.589844 356.957031 543.203125 356.785156 542.945312 C 356.605469 542.691406 356.316406 542.558594 355.929688 542.558594 M 348.183594 542.558594 C 347.472656 542.558594 346.832031 542.671875 346.238281 542.917969 C 345.652344 543.152344 345.15625 543.492188 344.746094 543.933594 C 344.332031 544.382812 344.015625 544.914062 343.789062 545.535156 C 343.574219 546.15625 343.464844 546.839844 343.464844 547.597656 C 343.464844 548.34375 343.574219 549.019531 343.789062 549.628906 C 344.007812 550.25 344.332031 550.773438 344.746094 551.234375 C 345.167969 551.683594 345.664062 552.023438 346.238281 552.269531 C 346.804688 552.511719 347.453125 552.628906 348.183594 552.628906 C 348.902344 552.628906 349.558594 552.511719 350.136719 552.277344 C 350.710938 552.035156 351.214844 551.691406 351.628906 551.242188 C 352.042969 550.800781 352.367188 550.261719 352.582031 549.640625 C 352.808594 549.007812 352.917969 548.335938 352.917969 547.597656 C 352.917969 546.859375 352.808594 546.175781 352.59375 545.554688 C 352.375 544.941406 352.050781 544.402344 351.636719 543.960938 C 351.222656 543.511719 350.71875 543.160156 350.136719 542.917969 C 349.550781 542.671875 348.902344 542.558594 348.183594 542.558594 M 337.859375 542.765625 C 337.5 542.765625 337.21875 542.84375 337.03125 543.015625 C 336.851562 543.175781 336.753906 543.394531 336.753906 543.65625 C 336.753906 543.914062 336.84375 544.132812 337.023438 544.292969 C 337.203125 544.464844 337.464844 544.554688 337.804688 544.554688 L 338.121094 544.554688 L 338.121094 549.316406 C 338.121094 550.082031 338.175781 550.691406 338.300781 551.160156 C 338.417969 551.621094 338.667969 551.980469 339.046875 552.242188 C 339.433594 552.5 339.992188 552.628906 340.738281 552.628906 C 341.523438 552.628906 342.117188 552.527344 342.539062 552.3125 C 342.960938 552.097656 343.160156 551.800781 343.160156 551.394531 C 343.160156 551.160156 343.089844 550.960938 342.933594 550.800781 C 342.78125 550.648438 342.601562 550.566406 342.414062 550.566406 C 342.277344 550.566406 342.097656 550.59375 341.863281 550.640625 C 341.621094 550.691406 341.433594 550.71875 341.296875 550.71875 C 341.035156 550.71875 340.855469 550.65625 340.75 550.523438 C 340.632812 550.394531 340.558594 550.226562 340.53125 550.019531 C 340.503906 549.800781 340.488281 549.503906 340.488281 549.117188 L 340.488281 544.554688 L 340.9375 544.554688 C 341.40625 544.554688 341.765625 544.484375 342.015625 544.355469 C 342.269531 544.222656 342.394531 543.988281 342.394531 543.65625 C 342.394531 543.394531 342.3125 543.175781 342.132812 543.015625 C 341.953125 542.84375 341.703125 542.765625 341.359375 542.765625 L 340.488281 542.765625 L 340.488281 541.082031 C 340.488281 540.667969 340.46875 540.332031 340.425781 540.109375 C 340.378906 539.882812 340.28125 539.695312 340.117188 539.53125 C 339.875 539.296875 339.605469 539.183594 339.300781 539.183594 C 339.082031 539.183594 338.894531 539.234375 338.722656 539.335938 C 338.542969 539.441406 338.40625 539.585938 338.316406 539.75 C 338.21875 539.917969 338.175781 540.109375 338.148438 540.332031 C 338.128906 540.558594 338.121094 540.882812 338.121094 541.277344 L 338.121094 542.765625 L 337.859375 542.765625 M 320.757812 542.539062 C 320.046875 542.539062 319.398438 542.65625 318.804688 542.898438 C 318.222656 543.132812 317.734375 543.476562 317.332031 543.925781 C 316.933594 544.375 316.628906 544.914062 316.421875 545.535156 C 316.214844 546.164062 316.105469 546.839844 316.105469 547.578125 C 316.105469 549.125 316.527344 550.359375 317.375 551.269531 C 318.222656 552.175781 319.410156 552.628906 320.929688 552.628906 C 321.605469 552.628906 322.191406 552.539062 322.703125 552.359375 C 323.214844 552.175781 323.640625 551.953125 323.980469 551.671875 C 324.324219 551.394531 324.574219 551.105469 324.738281 550.808594 C 324.90625 550.511719 324.988281 550.25 324.988281 550.027344 C 324.988281 549.773438 324.917969 549.578125 324.765625 549.433594 C 324.621094 549.296875 324.421875 549.226562 324.179688 549.226562 C 323.953125 549.226562 323.773438 549.28125 323.648438 549.386719 C 323.359375 549.683594 323.117188 549.910156 322.929688 550.082031 C 322.75 550.25 322.542969 550.414062 322.324219 550.558594 C 322.101562 550.703125 321.875 550.808594 321.640625 550.890625 C 321.40625 550.953125 321.144531 550.988281 320.867188 550.988281 C 320.433594 550.988281 320.046875 550.882812 319.695312 550.664062 C 319.347656 550.441406 319.066406 550.117188 318.851562 549.695312 C 318.644531 549.261719 318.535156 548.765625 318.527344 548.199219 L 323.179688 548.199219 C 323.800781 548.199219 324.277344 548.109375 324.621094 547.921875 C 324.972656 547.742188 325.132812 547.335938 325.132812 546.714844 C 325.132812 546.039062 324.972656 545.382812 324.636719 544.726562 C 324.304688 544.085938 323.808594 543.554688 323.144531 543.152344 C 322.476562 542.738281 321.6875 542.539062 320.757812 542.539062 M 307.511719 542.558594 C 307.304688 542.558594 307.113281 542.609375 306.945312 542.71875 C 306.773438 542.816406 306.628906 542.953125 306.539062 543.125 C 306.429688 543.292969 306.386719 543.457031 306.386719 543.628906 C 306.386719 543.734375 306.402344 543.863281 306.441406 544.023438 C 306.484375 544.175781 306.519531 544.320312 306.574219 544.464844 C 306.636719 544.609375 306.691406 544.753906 306.746094 544.898438 L 309.003906 550.738281 C 309.230469 551.296875 309.390625 551.671875 309.492188 551.863281 C 309.582031 552.0625 309.734375 552.230469 309.933594 552.394531 C 310.128906 552.554688 310.398438 552.628906 310.734375 552.628906 C 310.996094 552.628906 311.21875 552.582031 311.40625 552.476562 C 311.589844 552.375 311.742188 552.230469 311.867188 552.050781 C 311.984375 551.863281 312.101562 551.636719 312.210938 551.375 C 312.308594 551.125 312.390625 550.898438 312.453125 550.738281 L 314.730469 544.832031 C 314.800781 544.671875 314.855469 544.527344 314.898438 544.402344 C 314.953125 544.277344 315 544.132812 315.035156 543.988281 C 315.070312 543.84375 315.089844 543.71875 315.089844 543.609375 C 315.089844 543.332031 314.980469 543.085938 314.773438 542.878906 C 314.558594 542.664062 314.304688 542.558594 314 542.558594 C 313.683594 542.558594 313.453125 542.65625 313.289062 542.855469 C 313.128906 543.050781 312.972656 543.382812 312.804688 543.851562 L 310.734375 549.71875 L 308.816406 544.09375 C 308.636719 543.546875 308.472656 543.152344 308.320312 542.917969 C 308.175781 542.671875 307.898438 542.558594 307.511719 542.558594 M 301.011719 544.464844 C 301.660156 544.464844 302.101562 544.691406 302.316406 545.121094 C 302.535156 545.554688 302.640625 546.175781 302.640625 546.992188 L 302.640625 551.125 C 302.640625 551.609375 302.757812 551.980469 302.976562 552.242188 C 303.191406 552.5 303.480469 552.628906 303.832031 552.628906 C 304.179688 552.628906 304.460938 552.5 304.675781 552.25 C 304.890625 551.996094 305.007812 551.621094 305.007812 551.125 L 305.007812 546.515625 C 305.007812 545.96875 304.980469 545.519531 304.9375 545.167969 C 304.890625 544.824219 304.792969 544.492188 304.632812 544.1875 C 304.386719 543.664062 304.019531 543.269531 303.53125 542.988281 C 303.039062 542.699219 302.472656 542.558594 301.851562 542.558594 C 301.203125 542.558594 300.636719 542.691406 300.140625 542.960938 C 299.644531 543.230469 299.1875 543.65625 298.773438 544.222656 L 298.773438 543.925781 C 298.773438 543.628906 298.71875 543.382812 298.621094 543.167969 C 298.519531 542.96875 298.386719 542.808594 298.214844 542.710938 C 298.042969 542.609375 297.855469 542.558594 297.648438 542.558594 C 297.304688 542.558594 297.035156 542.671875 296.835938 542.90625 C 296.640625 543.140625 296.539062 543.492188 296.539062 543.960938 L 296.539062 551.125 C 296.539062 551.609375 296.648438 551.980469 296.875 552.242188 C 297.097656 552.5 297.378906 552.628906 297.71875 552.628906 C 298.070312 552.628906 298.359375 552.5 298.582031 552.257812 C 298.808594 552.007812 298.917969 551.628906 298.917969 551.125 L 298.917969 548.019531 C 298.917969 547.003906 298.980469 546.320312 299.097656 545.949219 C 299.257812 545.492188 299.511719 545.121094 299.859375 544.871094 C 300.203125 544.601562 300.589844 544.464844 301.011719 544.464844 M 292.957031 542.558594 C 292.617188 542.558594 292.328125 542.683594 292.113281 542.925781 C 291.894531 543.175781 291.789062 543.546875 291.789062 544.03125 L 291.789062 551.125 C 291.789062 551.609375 291.894531 551.980469 292.113281 552.242188 C 292.328125 552.5 292.617188 552.628906 292.957031 552.628906 C 293.308594 552.628906 293.597656 552.5 293.820312 552.25 C 294.046875 551.996094 294.15625 551.621094 294.15625 551.125 L 294.15625 543.960938 C 294.15625 543.519531 294.046875 543.175781 293.820312 542.925781 C 293.597656 542.683594 293.308594 542.558594 292.957031 542.558594 M 287.199219 551.234375 C 287.460938 551.683594 287.71875 552.035156 287.953125 552.277344 C 288.195312 552.511719 288.429688 552.628906 288.675781 552.628906 C 288.960938 552.628906 289.222656 552.527344 289.449219 552.320312 C 289.683594 552.113281 289.800781 551.878906 289.800781 551.621094 C 289.800781 551.476562 289.71875 551.152344 289.574219 550.648438 C 289.429688 550.144531 289.359375 549.65625 289.359375 549.191406 C 289.359375 548.695312 289.359375 548.246094 289.367188 547.839844 C 289.375 547.433594 289.375 546.941406 289.375 546.355469 C 289.375 545.4375 289.25 544.699219 289 544.140625 C 288.753906 543.582031 288.332031 543.175781 287.738281 542.925781 C 287.136719 542.664062 286.316406 542.539062 285.273438 542.539062 C 284.335938 542.539062 283.5625 542.664062 282.933594 542.933594 C 282.3125 543.203125 281.84375 543.546875 281.546875 543.960938 C 281.257812 544.367188 281.105469 544.789062 281.105469 545.21875 C 281.105469 545.507812 281.203125 545.734375 281.402344 545.914062 C 281.589844 546.085938 281.824219 546.175781 282.085938 546.175781 C 282.382812 546.175781 282.582031 546.121094 282.671875 546.011719 C 282.761719 545.894531 282.914062 545.671875 283.128906 545.320312 C 283.347656 544.960938 283.605469 544.699219 283.914062 544.527344 C 284.21875 544.347656 284.667969 544.265625 285.273438 544.265625 C 285.972656 544.265625 286.441406 544.410156 286.667969 544.714844 C 286.882812 545.023438 287.007812 545.507812 287.046875 546.164062 C 286.542969 546.308594 286.082031 546.445312 285.660156 546.542969 C 285.226562 546.652344 284.714844 546.769531 284.109375 546.894531 C 283.515625 547.019531 283.140625 547.101562 282.996094 547.136719 C 282.273438 547.300781 281.707031 547.625 281.304688 548.101562 C 280.890625 548.578125 280.683594 549.152344 280.683594 549.835938 C 280.683594 550.339844 280.808594 550.800781 281.050781 551.234375 C 281.304688 551.664062 281.652344 552.007812 282.121094 552.257812 C 282.582031 552.5 283.113281 552.628906 283.722656 552.628906 C 284.390625 552.628906 284.992188 552.519531 285.53125 552.277344 C 286.0625 552.050781 286.621094 551.699219 287.199219 551.234375 M 275.136719 544.484375 C 275.523438 544.484375 275.820312 544.589844 276.011719 544.808594 C 276.199219 545.023438 276.316406 545.292969 276.363281 545.617188 C 276.40625 545.941406 276.425781 546.363281 276.425781 546.894531 L 276.425781 551.070312 C 276.425781 551.582031 276.542969 551.96875 276.777344 552.230469 C 277 552.5 277.296875 552.628906 277.65625 552.628906 C 278.027344 552.628906 278.324219 552.5 278.550781 552.242188 C 278.773438 551.980469 278.890625 551.582031 278.890625 551.070312 L 278.890625 546.230469 C 278.890625 545.265625 278.792969 544.554688 278.585938 544.113281 C 278.351562 543.609375 278 543.230469 277.53125 542.96875 C 277.0625 542.699219 276.507812 542.566406 275.847656 542.566406 C 275.300781 542.566406 274.796875 542.691406 274.328125 542.933594 C 273.878906 543.175781 273.445312 543.554688 273.042969 544.058594 C 272.761719 543.566406 272.410156 543.1875 271.988281 542.945312 C 271.554688 542.691406 271.042969 542.566406 270.449219 542.566406 C 269.875 542.566406 269.351562 542.691406 268.882812 542.925781 C 268.414062 543.167969 267.972656 543.546875 267.558594 544.058594 L 267.558594 543.824219 C 267.558594 543.429688 267.453125 543.113281 267.234375 542.890625 C 267.019531 542.664062 266.75 542.546875 266.425781 542.546875 C 266.085938 542.546875 265.8125 542.671875 265.605469 542.917969 C 265.398438 543.152344 265.300781 543.511719 265.300781 543.980469 L 265.300781 551.070312 C 265.300781 551.582031 265.410156 551.96875 265.644531 552.230469 C 265.867188 552.5 266.164062 552.628906 266.535156 552.628906 C 266.894531 552.628906 267.183594 552.5 267.40625 552.230469 C 267.632812 551.96875 267.738281 551.582031 267.738281 551.070312 L 267.738281 547.714844 C 267.738281 546.667969 267.867188 545.878906 268.109375 545.320312 C 268.359375 544.761719 268.875 544.484375 269.648438 544.484375 C 270.035156 544.484375 270.324219 544.589844 270.496094 544.816406 C 270.675781 545.03125 270.78125 545.320312 270.828125 545.660156 C 270.871094 546.011719 270.890625 546.488281 270.890625 547.109375 L 270.890625 551.070312 C 270.890625 551.582031 271 551.980469 271.222656 552.242188 C 271.449219 552.5 271.734375 552.628906 272.097656 552.628906 C 272.464844 552.628906 272.761719 552.5 272.988281 552.242188 C 273.222656 551.980469 273.328125 551.582031 273.328125 551.070312 L 273.328125 547.777344 C 273.328125 546.707031 273.417969 545.96875 273.589844 545.554688 C 273.753906 545.21875 273.96875 544.960938 274.257812 544.769531 C 274.527344 544.582031 274.832031 544.484375 275.136719 544.484375 M 258.820312 542.558594 C 258.121094 542.558594 257.472656 542.671875 256.886719 542.917969 C 256.300781 543.152344 255.796875 543.492188 255.382812 543.933594 C 254.976562 544.382812 254.664062 544.914062 254.4375 545.535156 C 254.222656 546.15625 254.113281 546.839844 254.113281 547.597656 C 254.113281 548.34375 254.214844 549.019531 254.4375 549.628906 C 254.652344 550.25 254.96875 550.773438 255.390625 551.234375 C 255.816406 551.683594 256.308594 552.023438 256.886719 552.269531 C 257.460938 552.511719 258.109375 552.628906 258.820312 552.628906 C 259.542969 552.628906 260.199219 552.511719 260.78125 552.277344 C 261.359375 552.035156 261.863281 551.691406 262.277344 551.242188 C 262.699219 550.800781 263.015625 550.261719 263.230469 549.640625 C 263.457031 549.007812 263.5625 548.335938 263.5625 547.597656 C 263.5625 546.859375 263.457031 546.175781 263.238281 545.554688 C 263.023438 544.941406 262.699219 544.402344 262.285156 543.960938 C 261.871094 543.511719 261.367188 543.160156 260.78125 542.917969 C 260.199219 542.671875 259.542969 542.558594 258.820312 542.558594 M 250.046875 550.972656 L 250.046875 551.214844 C 250.046875 551.671875 250.152344 552.023438 250.359375 552.269531 C 250.578125 552.511719 250.847656 552.628906 251.171875 552.628906 C 251.503906 552.628906 251.773438 552.511719 251.980469 552.277344 C 252.1875 552.042969 252.296875 551.683594 252.296875 551.214844 L 252.296875 540.28125 C 252.296875 539.820312 252.195312 539.460938 252 539.226562 C 251.800781 538.992188 251.53125 538.867188 251.171875 538.867188 C 250.8125 538.867188 250.53125 539 250.34375 539.261719 C 250.144531 539.515625 250.046875 539.902344 250.046875 540.414062 L 250.046875 544.070312 C 249.605469 543.554688 249.144531 543.175781 248.679688 542.945312 C 248.210938 542.691406 247.625 542.566406 246.941406 542.566406 C 245.761719 542.566406 244.808594 542.996094 244.078125 543.863281 C 243.359375 544.726562 243 545.941406 243 547.488281 C 243 548.226562 243.089844 548.902344 243.269531 549.53125 C 243.457031 550.160156 243.71875 550.710938 244.078125 551.179688 C 244.429688 551.648438 244.84375 551.996094 245.332031 552.257812 C 245.816406 552.5 246.339844 552.628906 246.90625 552.628906 C 247.335938 552.628906 247.734375 552.566406 248.09375 552.449219 C 248.453125 552.320312 248.796875 552.140625 249.101562 551.898438 C 249.417969 551.664062 249.730469 551.351562 250.046875 550.972656 M 229.308594 542.558594 C 228.960938 542.558594 228.679688 542.683594 228.464844 542.925781 C 228.25 543.175781 228.132812 543.546875 228.132812 544.03125 L 228.132812 551.125 C 228.132812 551.609375 228.25 551.980469 228.464844 552.242188 C 228.679688 552.5 228.960938 552.628906 229.308594 552.628906 C 229.652344 552.628906 229.949219 552.5 230.175781 552.25 C 230.390625 551.996094 230.507812 551.621094 230.507812 551.125 L 230.507812 543.960938 C 230.507812 543.519531 230.390625 543.175781 230.175781 542.925781 C 229.949219 542.683594 229.652344 542.558594 229.308594 542.558594 M 224.484375 538.867188 C 224.125 538.867188 223.839844 538.992188 223.621094 539.246094 C 223.414062 539.503906 223.308594 539.875 223.308594 540.378906 L 223.308594 551.125 C 223.308594 551.609375 223.414062 551.980469 223.632812 552.242188 C 223.855469 552.5 224.136719 552.628906 224.484375 552.628906 C 224.835938 552.628906 225.125 552.5 225.351562 552.257812 C 225.566406 552.007812 225.683594 551.628906 225.683594 551.125 L 225.683594 540.378906 C 225.683594 539.875 225.566406 539.496094 225.351562 539.246094 C 225.132812 538.992188 224.847656 538.867188 224.484375 538.867188 M 214.59375 550.972656 C 214.855469 551.285156 215.0625 551.519531 215.226562 551.683594 C 215.386719 551.835938 215.578125 551.988281 215.800781 552.132812 C 216.027344 552.285156 216.304688 552.402344 216.621094 552.492188 C 216.945312 552.582031 217.296875 552.628906 217.65625 552.628906 C 218.25 552.628906 218.796875 552.5 219.292969 552.257812 C 219.789062 551.996094 220.210938 551.648438 220.5625 551.1875 C 220.914062 550.71875 221.175781 550.179688 221.363281 549.558594 C 221.542969 548.929688 221.632812 548.246094 221.632812 547.488281 C 221.632812 546.472656 221.472656 545.589844 221.136719 544.851562 C 220.8125 544.113281 220.347656 543.546875 219.761719 543.152344 C 219.15625 542.765625 218.472656 542.566406 217.683594 542.566406 C 217 542.566406 216.421875 542.699219 215.953125 542.953125 C 215.496094 543.214844 215.035156 543.582031 214.59375 544.070312 L 214.59375 540.28125 C 214.59375 539.828125 214.496094 539.480469 214.296875 539.234375 C 214.101562 538.992188 213.820312 538.867188 213.453125 538.867188 C 213.101562 538.867188 212.832031 538.992188 212.640625 539.253906 C 212.445312 539.515625 212.34375 539.894531 212.34375 540.386719 L 212.34375 551.214844 C 212.34375 551.683594 212.453125 552.035156 212.652344 552.277344 C 212.847656 552.511719 213.121094 552.628906 213.453125 552.628906 C 213.785156 552.628906 214.054688 552.511719 214.269531 552.277344 C 214.488281 552.035156 214.59375 551.683594 214.59375 551.214844 L 214.59375 550.972656 M 207.816406 550.917969 L 207.816406 551.234375 C 207.816406 551.671875 207.925781 552.015625 208.132812 552.269531 C 208.347656 552.5 208.621094 552.628906 208.941406 552.628906 C 209.265625 552.628906 209.527344 552.511719 209.734375 552.277344 C 209.941406 552.042969 210.042969 551.683594 210.042969 551.214844 L 210.042969 544.03125 C 210.042969 543.539062 209.933594 543.167969 209.71875 542.925781 C 209.511719 542.683594 209.222656 542.558594 208.871094 542.558594 C 208.511719 542.558594 208.230469 542.683594 208.007812 542.925781 C 207.792969 543.175781 207.683594 543.546875 207.683594 544.03125 L 207.683594 547.046875 C 207.683594 548.234375 207.609375 549 207.476562 549.359375 C 207.3125 549.757812 207.0625 550.082031 206.703125 550.324219 C 206.351562 550.574219 205.972656 550.691406 205.566406 550.691406 C 205.164062 550.691406 204.832031 550.585938 204.597656 550.367188 C 204.351562 550.144531 204.191406 549.835938 204.09375 549.449219 C 204.003906 549.054688 203.957031 548.578125 203.957031 548 L 203.957031 544.03125 C 203.957031 543.546875 203.839844 543.175781 203.625 542.925781 C 203.40625 542.683594 203.109375 542.558594 202.75 542.558594 C 202.398438 542.558594 202.121094 542.683594 201.90625 542.925781 C 201.6875 543.167969 201.582031 543.539062 201.582031 544.03125 L 201.582031 548.945312 C 201.582031 549.925781 201.726562 550.683594 202.023438 551.214844 C 202.273438 551.648438 202.625 551.988281 203.085938 552.242188 C 203.535156 552.484375 204.046875 552.609375 204.625 552.609375 C 205.101562 552.609375 205.523438 552.546875 205.890625 552.429688 C 206.261719 552.304688 206.601562 552.113281 206.917969 551.855469 C 207.234375 551.601562 207.53125 551.285156 207.816406 550.917969 M 331.433594 542.539062 C 330.441406 542.539062 329.589844 542.746094 328.878906 543.175781 C 328.15625 543.601562 327.617188 544.210938 327.238281 544.988281 C 326.859375 545.769531 326.671875 546.667969 326.671875 547.6875 C 326.671875 549.191406 327.085938 550.378906 327.90625 551.269531 C 328.734375 552.160156 329.875 552.609375 331.34375 552.609375 C 332.027344 552.609375 332.65625 552.519531 333.207031 552.320312 C 333.753906 552.125 334.214844 551.871094 334.574219 551.558594 C 334.941406 551.234375 335.203125 550.898438 335.382812 550.546875 C 335.5625 550.199219 335.652344 549.875 335.652344 549.558594 C 335.652344 549.296875 335.554688 549.054688 335.355469 548.820312 C 335.175781 548.59375 334.933594 548.488281 334.644531 548.488281 C 334.394531 548.488281 334.1875 548.558594 334.023438 548.710938 C 333.855469 548.875 333.703125 549.089844 333.558594 549.378906 C 333.296875 549.847656 332.988281 550.199219 332.65625 550.421875 C 332.316406 550.65625 331.910156 550.773438 331.433594 550.773438 C 331.074219 550.773438 330.75 550.703125 330.460938 550.558594 C 330.164062 550.414062 329.914062 550.207031 329.707031 549.925781 C 329.488281 549.648438 329.335938 549.324219 329.21875 548.929688 C 329.109375 548.542969 329.058594 548.109375 329.058594 547.640625 C 329.058594 546.652344 329.273438 545.867188 329.707031 545.292969 C 330.128906 544.726562 330.695312 544.4375 331.398438 544.4375 C 331.882812 544.4375 332.289062 544.554688 332.601562 544.78125 C 332.917969 545.015625 333.214844 545.363281 333.511719 545.824219 C 333.675781 546.058594 333.816406 546.230469 333.953125 546.328125 C 334.078125 546.4375 334.242188 546.488281 334.4375 546.488281 C 334.746094 546.488281 334.996094 546.390625 335.203125 546.183594 C 335.429688 545.976562 335.527344 545.726562 335.527344 545.425781 C 335.527344 545.140625 335.429688 544.824219 335.25 544.492188 C 335.058594 544.160156 334.789062 543.84375 334.429688 543.546875 C 334.070312 543.25 333.636719 543.007812 333.125 542.816406 C 332.601562 542.628906 332.046875 542.539062 331.433594 542.539062 M 237.25 542.539062 C 236.257812 542.539062 235.402344 542.746094 234.691406 543.175781 C 233.980469 543.601562 233.433594 544.210938 233.054688 544.988281 C 232.683594 545.769531 232.496094 546.667969 232.496094 547.6875 C 232.496094 549.191406 232.902344 550.378906 233.730469 551.269531 C 234.546875 552.160156 235.699219 552.609375 237.167969 552.609375 C 237.851562 552.609375 238.472656 552.519531 239.03125 552.320312 C 239.578125 552.125 240.027344 551.871094 240.398438 551.558594 C 240.757812 551.234375 241.027344 550.898438 241.207031 550.546875 C 241.378906 550.199219 241.46875 549.875 241.46875 549.558594 C 241.46875 549.296875 241.371094 549.054688 241.179688 548.820312 C 240.992188 548.59375 240.75 548.488281 240.460938 548.488281 C 240.21875 548.488281 240.011719 548.558594 239.839844 548.710938 C 239.679688 548.875 239.515625 549.089844 239.371094 549.378906 C 239.109375 549.847656 238.8125 550.199219 238.472656 550.421875 C 238.128906 550.65625 237.726562 550.773438 237.25 550.773438 C 236.898438 550.773438 236.574219 550.703125 236.277344 550.558594 C 235.980469 550.414062 235.726562 550.207031 235.519531 549.925781 C 235.3125 549.648438 235.152344 549.324219 235.042969 548.929688 C 234.933594 548.542969 234.871094 548.109375 234.871094 547.640625 C 234.871094 546.652344 235.089844 545.867188 235.519531 545.292969 C 235.941406 544.726562 236.511719 544.4375 237.222656 544.4375 C 237.699219 544.4375 238.101562 544.554688 238.417969 544.78125 C 238.734375 545.015625 239.039062 545.363281 239.328125 545.824219 C 239.488281 546.058594 239.640625 546.230469 239.769531 546.328125 C 239.902344 546.4375 240.066406 546.488281 240.261719 546.488281 C 240.558594 546.488281 240.820312 546.390625 241.027344 546.183594 C 241.246094 545.976562 241.34375 545.726562 241.34375 545.425781 C 241.34375 545.140625 241.253906 544.824219 241.0625 544.492188 C 240.875 544.160156 240.605469 543.84375 240.246094 543.546875 C 239.894531 543.25 239.453125 543.007812 238.941406 542.816406 C 238.425781 542.628906 237.871094 542.539062 237.25 542.539062 M 292.984375 538.976562 C 292.671875 538.976562 292.390625 539.082031 292.148438 539.308594 C 291.90625 539.542969 291.789062 539.828125 291.789062 540.179688 C 291.789062 540.566406 291.90625 540.863281 292.140625 541.082031 C 292.375 541.296875 292.660156 541.40625 292.984375 541.40625 C 293.300781 541.40625 293.578125 541.289062 293.8125 541.070312 C 294.046875 540.855469 294.15625 540.558594 294.15625 540.179688 C 294.15625 539.785156 294.039062 539.488281 293.804688 539.28125 C 293.570312 539.074219 293.292969 538.976562 292.984375 538.976562 M 229.335938 538.976562 C 229.011719 538.976562 228.734375 539.082031 228.5 539.308594 C 228.257812 539.542969 228.132812 539.828125 228.132812 540.179688 C 228.132812 540.566406 228.257812 540.863281 228.480469 541.082031 C 228.726562 541.296875 229.003906 541.40625 229.335938 541.40625 C 229.652344 541.40625 229.929688 541.289062 230.164062 541.070312 C 230.390625 540.855469 230.507812 540.558594 230.507812 540.179688 C 230.507812 539.785156 230.390625 539.488281 230.15625 539.28125 C 229.914062 539.074219 229.644531 538.976562 229.335938 538.976562 M 296.910156 503.480469 C 293.066406 503.480469 289.78125 504.902344 287.0625 507.734375 C 284.34375 510.578125 282.984375 514.007812 282.984375 518.015625 C 282.984375 522.027344 284.34375 525.457031 287.0625 528.300781 C 289.78125 531.136719 293.066406 532.558594 296.910156 532.558594 C 300.742188 532.558594 304.019531 531.136719 306.746094 528.300781 C 309.464844 525.457031 310.824219 522.027344 310.824219 518.015625 C 310.824219 514.007812 309.464844 510.578125 306.746094 507.734375 C 304.019531 504.902344 300.742188 503.480469 296.910156 503.480469 M 284.542969 551.007812 C 284.101562 551.007812 283.742188 550.882812 283.472656 550.613281 C 283.203125 550.351562 283.066406 550.035156 283.066406 549.65625 C 283.066406 549.296875 283.175781 549.007812 283.410156 548.800781 C 283.644531 548.605469 283.886719 548.46875 284.136719 548.398438 C 284.398438 548.324219 284.859375 548.21875 285.523438 548.074219 C 286.191406 547.921875 286.695312 547.777344 287.046875 547.640625 L 287.046875 548 C 287.046875 548.867188 286.929688 549.476562 286.722656 549.855469 C 286.53125 550.199219 286.246094 550.476562 285.847656 550.683594 C 285.453125 550.898438 285.011719 551.007812 284.542969 551.007812 M 380.636719 550.792969 C 380.160156 550.792969 379.753906 550.664062 379.402344 550.40625 C 379.050781 550.152344 378.78125 549.773438 378.585938 549.296875 C 378.402344 548.8125 378.304688 548.246094 378.304688 547.597656 C 378.304688 546.941406 378.402344 546.371094 378.59375 545.886719 C 378.78125 545.402344 379.050781 545.023438 379.414062 544.769531 C 379.761719 544.519531 380.167969 544.394531 380.636719 544.394531 C 381.355469 544.394531 381.921875 544.679688 382.355469 545.238281 C 382.777344 545.804688 382.996094 546.589844 382.996094 547.597656 C 382.996094 548.59375 382.777344 549.378906 382.355469 549.945312 C 381.921875 550.511719 381.355469 550.792969 380.636719 550.792969 M 348.183594 550.792969 C 347.695312 550.792969 347.292969 550.664062 346.941406 550.40625 C 346.589844 550.152344 346.320312 549.773438 346.128906 549.296875 C 345.941406 548.8125 345.84375 548.246094 345.84375 547.597656 C 345.84375 546.941406 345.941406 546.371094 346.140625 545.886719 C 346.328125 545.402344 346.597656 545.023438 346.949219 544.769531 C 347.308594 544.519531 347.714844 544.394531 348.183594 544.394531 C 348.902344 544.394531 349.46875 544.679688 349.890625 545.238281 C 350.324219 545.804688 350.53125 546.589844 350.53125 547.597656 C 350.53125 548.59375 350.324219 549.378906 349.890625 549.945312 C 349.46875 550.511719 348.902344 550.792969 348.183594 550.792969 M 258.820312 550.792969 C 258.351562 550.792969 257.929688 550.664062 257.589844 550.40625 C 257.238281 550.152344 256.96875 549.773438 256.777344 549.296875 C 256.589844 548.8125 256.488281 548.246094 256.488281 547.597656 C 256.488281 546.941406 256.589844 546.371094 256.777344 545.886719 C 256.96875 545.402344 257.246094 545.023438 257.597656 544.769531 C 257.949219 544.519531 258.363281 544.394531 258.820312 544.394531 C 259.542969 544.394531 260.117188 544.679688 260.539062 545.238281 C 260.972656 545.804688 261.179688 546.589844 261.179688 547.597656 C 261.179688 548.59375 260.972656 549.378906 260.539062 549.945312 C 260.117188 550.511719 259.542969 550.792969 258.820312 550.792969 M 247.632812 550.71875 C 247.230469 550.71875 246.851562 550.601562 246.5 550.359375 C 246.148438 550.117188 245.878906 549.765625 245.679688 549.296875 C 245.484375 548.820312 245.382812 548.253906 245.382812 547.578125 C 245.382812 546.941406 245.472656 546.382812 245.664062 545.90625 C 245.851562 545.417969 246.121094 545.050781 246.457031 544.789062 C 246.804688 544.535156 247.191406 544.402344 247.625 544.402344 C 248.039062 544.402344 248.425781 544.527344 248.777344 544.78125 C 249.128906 545.039062 249.398438 545.402344 249.613281 545.878906 C 249.8125 546.355469 249.921875 546.914062 249.921875 547.578125 C 249.921875 548.28125 249.8125 548.867188 249.613281 549.332031 C 249.398438 549.800781 249.128906 550.152344 248.785156 550.378906 C 248.433594 550.601562 248.058594 550.71875 247.632812 550.71875 M 217.050781 550.71875 C 216.351562 550.71875 215.78125 550.449219 215.351562 549.925781 C 214.917969 549.386719 214.710938 548.640625 214.710938 547.652344 C 214.710938 546.976562 214.8125 546.390625 215.007812 545.914062 C 215.214844 545.417969 215.496094 545.050781 215.847656 544.789062 C 216.207031 544.535156 216.601562 544.402344 217.050781 544.402344 C 217.503906 544.402344 217.878906 544.535156 218.214844 544.789062 C 218.546875 545.050781 218.796875 545.410156 218.976562 545.886719 C 219.15625 546.355469 219.25 546.921875 219.25 547.578125 C 219.25 548.585938 219.03125 549.359375 218.601562 549.910156 C 218.167969 550.449219 217.65625 550.71875 217.050781 550.71875 M 195.144531 550.71875 C 194.488281 550.71875 193.929688 550.441406 193.480469 549.890625 C 193.039062 549.351562 192.816406 548.585938 192.816406 547.597656 C 192.816406 546.542969 193.039062 545.761719 193.488281 545.210938 C 193.941406 544.679688 194.488281 544.402344 195.144531 544.402344 C 195.558594 544.402344 195.929688 544.527344 196.269531 544.78125 C 196.613281 545.039062 196.882812 545.402344 197.070312 545.867188 C 197.261719 546.328125 197.359375 546.894531 197.359375 547.550781 C 197.359375 548.226562 197.261719 548.800781 197.054688 549.289062 C 196.847656 549.757812 196.578125 550.117188 196.246094 550.359375 C 195.910156 550.601562 195.542969 550.71875 195.144531 550.71875 M 398.726562 550.566406 C 398.058594 550.566406 397.511719 550.304688 397.097656 549.792969 C 396.675781 549.28125 396.46875 548.515625 396.46875 547.515625 C 396.46875 546.515625 396.664062 545.75 397.078125 545.210938 C 397.484375 544.679688 398.03125 544.402344 398.707031 544.402344 C 399.402344 544.402344 399.96875 544.691406 400.390625 545.257812 C 400.8125 545.816406 401.03125 546.605469 401.03125 547.613281 C 401.03125 548.246094 400.921875 548.785156 400.695312 549.234375 C 400.480469 549.675781 400.191406 550.007812 399.84375 550.226562 C 399.492188 550.449219 399.113281 550.566406 398.726562 550.566406 M 322.839844 546.785156 L 318.527344 546.785156 C 318.617188 545.957031 318.84375 545.328125 319.21875 544.90625 C 319.597656 544.472656 320.09375 544.265625 320.679688 544.265625 C 321.300781 544.265625 321.804688 544.472656 322.179688 544.898438 C 322.558594 545.3125 322.773438 545.949219 322.839844 546.785156 M 296.910156 529.273438 C 294.898438 529.273438 293.109375 528.753906 291.539062 527.710938 L 293.449219 525.261719 C 294.539062 525.917969 295.816406 526.25 297.289062 526.25 C 298.980469 526.25 300.429688 525.726562 301.625 524.683594 C 302.921875 523.621094 303.703125 522.136719 303.945312 520.238281 L 300.429688 520.238281 C 300.328125 522.054688 299.320312 522.964844 297.429688 522.964844 C 296.726562 522.964844 296.109375 522.816406 295.578125 522.527344 L 301.167969 515.351562 L 303.945312 515.351562 C 303.808594 514.40625 303.53125 513.570312 303.121094 512.839844 L 304.804688 510.679688 C 306.425781 512.730469 307.230469 515.171875 307.230469 518.015625 C 307.230469 521.171875 306.242188 523.835938 304.246094 526.003906 C 302.246094 528.183594 299.796875 529.273438 296.910156 529.273438 M 289.523438 525.96875 C 287.558594 523.808594 286.558594 521.15625 286.558594 518.015625 C 286.558594 514.863281 287.566406 512.199219 289.554688 510.023438 C 291.554688 507.851562 294.003906 506.765625 296.910156 506.765625 C 299.1875 506.765625 301.1875 507.441406 302.914062 508.789062 L 301.300781 510.855469 C 300.164062 510.078125 298.796875 509.6875 297.207031 509.6875 C 294.867188 509.6875 293.046875 510.4375 291.761719 511.929688 C 290.472656 513.433594 289.835938 515.414062 289.835938 517.898438 C 289.835938 520.117188 290.386719 521.972656 291.484375 523.453125 L 289.523438 525.96875 M 293.859375 520.40625 C 293.566406 519.65625 293.417969 518.789062 293.417969 517.808594 C 293.417969 514.585938 294.777344 512.972656 297.503906 512.972656 C 298.230469 512.972656 298.828125 513.128906 299.289062 513.4375 L 293.859375 520.40625 "/>
</clipPath>
<radialGradient id="radial0" gradientUnits="userSpaceOnUse" cx="0" cy="0" fx="0" fy="0" r="299.721" gradientTransform="matrix(1,0,0,1,299.543189,301.5898)">
<stop offset="0" style="stop-color:rgb(100%,100%,100%);stop-opacity:1;"/>
<stop offset="0.5" style="stop-color:rgb(100%,100%,100%);stop-opacity:1;"/>
<stop offset="0.625" style="stop-color:rgb(100%,100%,100%);stop-opacity:1;"/>
<stop offset="0.648438" style="stop-color:rgb(99.942017%,99.942017%,99.942017%);stop-opacity:1;"/>
<stop offset="0.65625" style="stop-color:rgb(99.77417%,99.769592%,99.771118%);stop-opacity:1;"/>
<stop offset="0.742188" style="stop-color:rgb(99.54071%,99.533081%,99.534607%);stop-opacity:1;"/>
<stop offset="0.773438" style="stop-color:rgb(99.343872%,99.331665%,99.334717%);stop-opacity:1;"/>
<stop offset="0.828125" style="stop-color:rgb(99.128723%,99.113464%,99.116516%);stop-opacity:1;"/>
<stop offset="0.871094" style="stop-color:rgb(98.84491%,98.823547%,98.829651%);stop-opacity:1;"/>
<stop offset="0.886719" style="stop-color:rgb(98.577881%,98.551941%,98.558044%);stop-opacity:1;"/>
<stop offset="0.914062" style="stop-color:rgb(98.38562%,98.356628%,98.362732%);stop-opacity:1;"/>
<stop offset="0.933594" style="stop-color:rgb(98.181152%,98.147583%,98.156738%);stop-opacity:1;"/>
<stop offset="0.949219" style="stop-color:rgb(97.966003%,97.929382%,97.938538%);stop-opacity:1;"/>
<stop offset="0.972656" style="stop-color:rgb(97.763062%,97.721863%,97.732544%);stop-opacity:1;"/>
<stop offset="1" style="stop-color:rgb(97.640991%,97.598267%,97.608948%);stop-opacity:1;"/>
</radialGradient>
<clipPath id="clip3">
  <path d="M 75 35 L 525 35 L 525 464 L 75 464 Z M 75 35 "/>
</clipPath>
<clipPath id="clip4">
  <path d="M 354.132812 220.574219 C 386.347656 223.671875 416.894531 226.082031 443.667969 230.183594 C 425.089844 249.855469 402.484375 270.207031 379.195312 292.324219 C 398.105469 291.261719 417.1875 290.976562 436.425781 292.035156 C 476.40625 257.917969 508.492188 223.769531 524.167969 200.09375 C 498.472656 193.539062 453.132812 189.003906 400.144531 186.628906 C 385.1875 198.789062 369.679688 209.875 354.132812 220.574219 Z M 353.9375 243.226562 C 342.769531 250.835938 331.851562 258.242188 321.421875 265.589844 C 334.628906 269.324219 348.402344 273.007812 362.519531 276.984375 C 373.011719 266.757812 383.359375 256.941406 393.175781 247.34375 C 380.511719 245.871094 367.375 244.585938 353.9375 243.226562 Z M 267.828125 203.308594 C 280.730469 173.625 292.460938 145.320312 304.632812 121.125 C 317.605469 144.875 329.972656 172.660156 343.804688 201.644531 C 348.644531 183.332031 354.265625 165.089844 361.222656 147.121094 C 341.132812 98.558594 318.5625 57.492188 300.898438 35.261719 C 286.71875 57.679688 268.390625 99.398438 249.761719 149.058594 C 256.703125 167.039062 262.457031 185.222656 267.828125 203.308594 Z M 289.304688 210.492188 C 293.09375 223.464844 296.765625 236.140625 300.535156 248.328125 C 308.164062 236.921875 315.925781 224.957031 324.070312 212.765625 C 317.585938 199.625 311.445312 186.75 305.351562 174.445312 C 300.042969 186.039062 294.753906 198.132812 289.304688 210.492188 Z M 224.738281 280.050781 C 200.492188 258.609375 177.195312 238.707031 157.953125 219.660156 C 184.542969 214.65625 214.792969 211.476562 246.628906 207.273438 C 230.710938 197.019531 215.101562 186.03125 200.15625 173.871094 C 147.765625 177.964844 101.734375 186.738281 75.132812 196.671875 C 92.070312 217.089844 126.082031 247.40625 167.558594 280.46875 C 186.804688 279.425781 205.875 279.570312 224.738281 280.050781 Z M 238.207031 261.839844 C 251.714844 262.246094 264.902344 262.675781 277.65625 262.867188 C 269.171875 252.078125 260.191406 241 251.109375 229.484375 C 236.609375 231.589844 222.46875 233.457031 208.882812 235.449219 C 218.269531 244.078125 228.136719 252.84375 238.207031 261.839844 Z M 284.40625 344.75 C 256.519531 361.175781 230.394531 377.1875 206.328125 389.605469 C 209.792969 362.765625 216.117188 333.015625 221.960938 301.441406 C 207.28125 313.414062 192.015625 324.859375 175.820312 335.3125 C 163.535156 386.414062 157.652344 432.894531 158.878906 461.265625 C 183.53125 451.460938 222.871094 428.484375 267.136719 399.261719 C 272.089844 380.628906 278.125 362.542969 284.40625 344.75 Z M 271.25 326.3125 C 275.808594 313.589844 280.296875 301.183594 284.410156 289.105469 C 271.535156 293.847656 258.226562 298.960938 244.46875 304.046875 C 241.988281 318.484375 239.390625 332.507812 237.085938 346.046875 C 248.195312 339.785156 259.582031 333.113281 271.25 326.3125 Z M 364.382812 307.992188 C 371.386719 339.589844 378.539062 369.382812 382.914062 396.109375 C 358.457031 384.523438 332.117188 369.3125 303.890625 353.996094 C 310.742188 371.65625 316.910156 389.710938 321.847656 408.34375 C 366.648438 435.824219 409.042969 455.78125 436.398438 463.382812 C 434.695312 436.910156 425 392.390625 410.882812 341.265625 C 394.695312 330.789062 379.355469 319.46875 364.382812 307.992188 Z M 350.988281 353.402344 C 338.828125 347.027344 326.292969 340.21875 313.324219 333.402344 C 312.746094 318.746094 311.988281 304.503906 311.457031 290.789062 C 321.671875 298.4375 332.089844 306.539062 342.777344 314.804688 C 345.636719 328.003906 348.46875 340.894531 350.988281 353.402344 "/>
</clipPath>
<linearGradient id="linear0" gradientUnits="userSpaceOnUse" x1="-0.0154858" y1="0" x2="1.009566" y2="0" gradientTransform="matrix(448.64,-11.6921,11.6922,448.64,76.706089,256.9328)">
<stop offset="0" style="stop-color:rgb(10.197449%,68.136597%,92.416382%);stop-opacity:1;"/>
<stop offset="0.015625" style="stop-color:rgb(10.212708%,68.107605%,92.393494%);stop-opacity:1;"/>
<stop offset="0.0195312" style="stop-color:rgb(10.450745%,67.62085%,92.001343%);stop-opacity:1;"/>
<stop offset="0.0234375" style="stop-color:rgb(10.671997%,67.163086%,91.63208%);stop-opacity:1;"/>
<stop offset="0.0273438" style="stop-color:rgb(10.89325%,66.705322%,91.264343%);stop-opacity:1;"/>
<stop offset="0.03125" style="stop-color:rgb(11.114502%,66.244507%,90.895081%);stop-opacity:1;"/>
<stop offset="0.0351562" style="stop-color:rgb(11.335754%,65.786743%,90.527344%);stop-opacity:1;"/>
<stop offset="0.0390625" style="stop-color:rgb(11.555481%,65.325928%,90.158081%);stop-opacity:1;"/>
<stop offset="0.0429687" style="stop-color:rgb(11.776733%,64.866638%,89.79187%);stop-opacity:1;"/>
<stop offset="0.046875" style="stop-color:rgb(11.99646%,64.402771%,89.422607%);stop-opacity:1;"/>
<stop offset="0.0507812" style="stop-color:rgb(12.216187%,63.941956%,89.056396%);stop-opacity:1;"/>
<stop offset="0.0546875" style="stop-color:rgb(12.434387%,63.478088%,88.68866%);stop-opacity:1;"/>
<stop offset="0.0585937" style="stop-color:rgb(12.654114%,63.015747%,88.322449%);stop-opacity:1;"/>
<stop offset="0.0625" style="stop-color:rgb(12.872314%,62.550354%,87.954712%);stop-opacity:1;"/>
<stop offset="0.0664062" style="stop-color:rgb(13.092041%,62.086487%,87.588501%);stop-opacity:1;"/>
<stop offset="0.0703125" style="stop-color:rgb(13.308716%,61.619568%,87.220764%);stop-opacity:1;"/>
<stop offset="0.0742188" style="stop-color:rgb(13.525391%,61.154175%,86.856079%);stop-opacity:1;"/>
<stop offset="0.078125" style="stop-color:rgb(13.742065%,60.687256%,86.488342%);stop-opacity:1;"/>
<stop offset="0.0820312" style="stop-color:rgb(13.95874%,60.220337%,86.123657%);stop-opacity:1;"/>
<stop offset="0.0859375" style="stop-color:rgb(14.173889%,59.751892%,85.757446%);stop-opacity:1;"/>
<stop offset="0.0898438" style="stop-color:rgb(14.390564%,59.283447%,85.392761%);stop-opacity:1;"/>
<stop offset="0.09375" style="stop-color:rgb(14.605713%,58.813477%,85.02655%);stop-opacity:1;"/>
<stop offset="0.0976562" style="stop-color:rgb(14.820862%,58.343506%,84.661865%);stop-opacity:1;"/>
<stop offset="0.101562" style="stop-color:rgb(15.034485%,57.870483%,84.295654%);stop-opacity:1;"/>
<stop offset="0.105469" style="stop-color:rgb(15.249634%,57.400513%,83.930969%);stop-opacity:1;"/>
<stop offset="0.109375" style="stop-color:rgb(15.461731%,56.92749%,83.564758%);stop-opacity:1;"/>
<stop offset="0.113281" style="stop-color:rgb(15.67688%,56.454468%,83.201599%);stop-opacity:1;"/>
<stop offset="0.117187" style="stop-color:rgb(15.888977%,55.981445%,82.836914%);stop-opacity:1;"/>
<stop offset="0.121094" style="stop-color:rgb(16.1026%,55.506897%,82.473755%);stop-opacity:1;"/>
<stop offset="0.125" style="stop-color:rgb(16.313171%,55.030823%,82.10907%);stop-opacity:1;"/>
<stop offset="0.128906" style="stop-color:rgb(16.525269%,54.556274%,81.745911%);stop-opacity:1;"/>
<stop offset="0.132812" style="stop-color:rgb(16.737366%,54.0802%,81.381226%);stop-opacity:1;"/>
<stop offset="0.136719" style="stop-color:rgb(16.947937%,53.6026%,81.019592%);stop-opacity:1;"/>
<stop offset="0.140625" style="stop-color:rgb(17.158508%,53.125%,80.654907%);stop-opacity:1;"/>
<stop offset="0.144531" style="stop-color:rgb(17.36908%,52.6474%,80.293274%);stop-opacity:1;"/>
<stop offset="0.148438" style="stop-color:rgb(17.578125%,52.168274%,79.930115%);stop-opacity:1;"/>
<stop offset="0.152344" style="stop-color:rgb(17.788696%,51.689148%,79.568481%);stop-opacity:1;"/>
<stop offset="0.15625" style="stop-color:rgb(17.997742%,51.208496%,79.205322%);stop-opacity:1;"/>
<stop offset="0.160156" style="stop-color:rgb(18.206787%,50.72937%,78.843689%);stop-opacity:1;"/>
<stop offset="0.164062" style="stop-color:rgb(18.414307%,50.245667%,78.48053%);stop-opacity:1;"/>
<stop offset="0.167969" style="stop-color:rgb(18.623352%,49.765015%,78.120422%);stop-opacity:1;"/>
<stop offset="0.171875" style="stop-color:rgb(18.830872%,49.281311%,77.758789%);stop-opacity:1;"/>
<stop offset="0.175781" style="stop-color:rgb(19.038391%,48.797607%,77.397156%);stop-opacity:1;"/>
<stop offset="0.179688" style="stop-color:rgb(19.244385%,48.313904%,77.035522%);stop-opacity:1;"/>
<stop offset="0.183594" style="stop-color:rgb(19.451904%,47.8302%,76.675415%);stop-opacity:1;"/>
<stop offset="0.1875" style="stop-color:rgb(19.657898%,47.343445%,76.313782%);stop-opacity:1;"/>
<stop offset="0.191406" style="stop-color:rgb(19.863892%,46.858215%,75.9552%);stop-opacity:1;"/>
<stop offset="0.195312" style="stop-color:rgb(20.068359%,46.369934%,75.593567%);stop-opacity:1;"/>
<stop offset="0.199219" style="stop-color:rgb(20.274353%,45.883179%,75.233459%);stop-opacity:1;"/>
<stop offset="0.203125" style="stop-color:rgb(20.478821%,45.394897%,74.873352%);stop-opacity:1;"/>
<stop offset="0.207031" style="stop-color:rgb(20.683289%,44.906616%,74.516296%);stop-opacity:1;"/>
<stop offset="0.210938" style="stop-color:rgb(20.88623%,44.416809%,74.156189%);stop-opacity:1;"/>
<stop offset="0.214844" style="stop-color:rgb(21.090698%,43.927002%,73.797607%);stop-opacity:1;"/>
<stop offset="0.21875" style="stop-color:rgb(21.29364%,43.435669%,73.4375%);stop-opacity:1;"/>
<stop offset="0.222656" style="stop-color:rgb(21.496582%,42.945862%,73.078918%);stop-opacity:1;"/>
<stop offset="0.226562" style="stop-color:rgb(21.697998%,42.453003%,72.720337%);stop-opacity:1;"/>
<stop offset="0.230469" style="stop-color:rgb(21.90094%,41.960144%,72.363281%);stop-opacity:1;"/>
<stop offset="0.234375" style="stop-color:rgb(22.103882%,41.465759%,72.003174%);stop-opacity:1;"/>
<stop offset="0.238281" style="stop-color:rgb(22.305298%,40.9729%,71.646118%);stop-opacity:1;"/>
<stop offset="0.242187" style="stop-color:rgb(22.505188%,40.478516%,71.289062%);stop-opacity:1;"/>
<stop offset="0.246094" style="stop-color:rgb(22.706604%,39.982605%,70.932007%);stop-opacity:1;"/>
<stop offset="0.25" style="stop-color:rgb(22.906494%,39.486694%,70.574951%);stop-opacity:1;"/>
<stop offset="0.253906" style="stop-color:rgb(23.106384%,38.989258%,70.21637%);stop-opacity:1;"/>
<stop offset="0.257812" style="stop-color:rgb(23.304749%,38.491821%,69.859314%);stop-opacity:1;"/>
<stop offset="0.261719" style="stop-color:rgb(23.504639%,37.994385%,69.503784%);stop-opacity:1;"/>
<stop offset="0.265625" style="stop-color:rgb(23.701477%,37.495422%,69.146729%);stop-opacity:1;"/>
<stop offset="0.269531" style="stop-color:rgb(23.901367%,36.99646%,68.791199%);stop-opacity:1;"/>
<stop offset="0.273437" style="stop-color:rgb(24.098206%,36.495972%,68.434143%);stop-opacity:1;"/>
<stop offset="0.277344" style="stop-color:rgb(24.29657%,35.995483%,68.080139%);stop-opacity:1;"/>
<stop offset="0.28125" style="stop-color:rgb(24.493408%,35.494995%,67.724609%);stop-opacity:1;"/>
<stop offset="0.285156" style="stop-color:rgb(24.690247%,34.992981%,67.370605%);stop-opacity:1;"/>
<stop offset="0.289062" style="stop-color:rgb(24.885559%,34.490967%,67.015076%);stop-opacity:1;"/>
<stop offset="0.292969" style="stop-color:rgb(25.082397%,33.987427%,66.661072%);stop-opacity:1;"/>
<stop offset="0.296875" style="stop-color:rgb(25.27771%,33.483887%,66.305542%);stop-opacity:1;"/>
<stop offset="0.300781" style="stop-color:rgb(25.473022%,32.978821%,65.951538%);stop-opacity:1;"/>
<stop offset="0.304687" style="stop-color:rgb(25.666809%,32.473755%,65.597534%);stop-opacity:1;"/>
<stop offset="0.308594" style="stop-color:rgb(26.399231%,32.240295%,65.46936%);stop-opacity:1;"/>
<stop offset="0.3125" style="stop-color:rgb(27.128601%,32.003784%,65.339661%);stop-opacity:1;"/>
<stop offset="0.316406" style="stop-color:rgb(27.926636%,31.799316%,65.240479%);stop-opacity:1;"/>
<stop offset="0.320312" style="stop-color:rgb(28.723145%,31.591797%,65.139771%);stop-opacity:1;"/>
<stop offset="0.324219" style="stop-color:rgb(29.519653%,31.382751%,65.039062%);stop-opacity:1;"/>
<stop offset="0.328125" style="stop-color:rgb(30.31311%,31.169128%,64.938354%);stop-opacity:1;"/>
<stop offset="0.332031" style="stop-color:rgb(31.106567%,30.953979%,64.837646%);stop-opacity:1;"/>
<stop offset="0.335938" style="stop-color:rgb(31.896973%,30.737305%,64.735413%);stop-opacity:1;"/>
<stop offset="0.339844" style="stop-color:rgb(32.688904%,30.516052%,64.633179%);stop-opacity:1;"/>
<stop offset="0.34375" style="stop-color:rgb(33.477783%,30.293274%,64.530945%);stop-opacity:1;"/>
<stop offset="0.347656" style="stop-color:rgb(34.266663%,30.067444%,64.427185%);stop-opacity:1;"/>
<stop offset="0.351562" style="stop-color:rgb(35.05249%,29.837036%,64.323425%);stop-opacity:1;"/>
<stop offset="0.355469" style="stop-color:rgb(35.836792%,29.605103%,64.219666%);stop-opacity:1;"/>
<stop offset="0.359375" style="stop-color:rgb(36.621094%,29.371643%,64.115906%);stop-opacity:1;"/>
<stop offset="0.363281" style="stop-color:rgb(37.405396%,29.133606%,64.01062%);stop-opacity:1;"/>
<stop offset="0.367187" style="stop-color:rgb(38.18512%,28.894043%,63.905334%);stop-opacity:1;"/>
<stop offset="0.371094" style="stop-color:rgb(38.96637%,28.651428%,63.800049%);stop-opacity:1;"/>
<stop offset="0.375" style="stop-color:rgb(39.744568%,28.407288%,63.694763%);stop-opacity:1;"/>
<stop offset="0.378906" style="stop-color:rgb(40.522766%,28.158569%,63.589478%);stop-opacity:1;"/>
<stop offset="0.382812" style="stop-color:rgb(41.297913%,27.908325%,63.482666%);stop-opacity:1;"/>
<stop offset="0.386719" style="stop-color:rgb(42.073059%,27.655029%,63.375854%);stop-opacity:1;"/>
<stop offset="0.390625" style="stop-color:rgb(42.84668%,27.398682%,63.269043%);stop-opacity:1;"/>
<stop offset="0.394531" style="stop-color:rgb(43.6203%,27.139282%,63.160706%);stop-opacity:1;"/>
<stop offset="0.398438" style="stop-color:rgb(44.390869%,26.876831%,63.052368%);stop-opacity:1;"/>
<stop offset="0.402344" style="stop-color:rgb(45.159912%,26.612854%,62.944031%);stop-opacity:1;"/>
<stop offset="0.40625" style="stop-color:rgb(45.928955%,26.345825%,62.834167%);stop-opacity:1;"/>
<stop offset="0.410156" style="stop-color:rgb(46.696472%,26.075745%,62.72583%);stop-opacity:1;"/>
<stop offset="0.414062" style="stop-color:rgb(47.462463%,25.802612%,62.617493%);stop-opacity:1;"/>
<stop offset="0.417969" style="stop-color:rgb(48.226929%,25.527954%,62.506104%);stop-opacity:1;"/>
<stop offset="0.421875" style="stop-color:rgb(48.989868%,25.250244%,62.39624%);stop-opacity:1;"/>
<stop offset="0.425781" style="stop-color:rgb(49.752808%,24.969482%,62.284851%);stop-opacity:1;"/>
<stop offset="0.429687" style="stop-color:rgb(50.512695%,24.685669%,62.174988%);stop-opacity:1;"/>
<stop offset="0.433594" style="stop-color:rgb(51.272583%,24.398804%,62.062073%);stop-opacity:1;"/>
<stop offset="0.4375" style="stop-color:rgb(52.030945%,24.110413%,61.950684%);stop-opacity:1;"/>
<stop offset="0.441406" style="stop-color:rgb(52.787781%,23.817444%,61.837769%);stop-opacity:1;"/>
<stop offset="0.445312" style="stop-color:rgb(53.543091%,23.522949%,61.724854%);stop-opacity:1;"/>
<stop offset="0.449219" style="stop-color:rgb(54.296875%,23.225403%,61.611938%);stop-opacity:1;"/>
<stop offset="0.453125" style="stop-color:rgb(55.050659%,22.924805%,61.497498%);stop-opacity:1;"/>
<stop offset="0.457031" style="stop-color:rgb(55.802917%,22.622681%,61.384583%);stop-opacity:1;"/>
<stop offset="0.460937" style="stop-color:rgb(56.552124%,22.317505%,61.270142%);stop-opacity:1;"/>
<stop offset="0.464844" style="stop-color:rgb(57.301331%,22.009277%,61.154175%);stop-opacity:1;"/>
<stop offset="0.46875" style="stop-color:rgb(58.050537%,21.697998%,61.039734%);stop-opacity:1;"/>
<stop offset="0.472656" style="stop-color:rgb(58.796692%,21.383667%,60.923767%);stop-opacity:1;"/>
<stop offset="0.476562" style="stop-color:rgb(59.541321%,21.06781%,60.8078%);stop-opacity:1;"/>
<stop offset="0.480469" style="stop-color:rgb(60.28595%,20.747375%,60.691833%);stop-opacity:1;"/>
<stop offset="0.484375" style="stop-color:rgb(61.029053%,20.425415%,60.574341%);stop-opacity:1;"/>
<stop offset="0.488281" style="stop-color:rgb(61.77063%,20.101929%,60.456848%);stop-opacity:1;"/>
<stop offset="0.492188" style="stop-color:rgb(62.509155%,19.772339%,60.339355%);stop-opacity:1;"/>
<stop offset="0.496094" style="stop-color:rgb(63.249207%,19.442749%,60.220337%);stop-opacity:1;"/>
<stop offset="0.5" style="stop-color:rgb(63.986206%,19.108582%,60.102844%);stop-opacity:1;"/>
<stop offset="0.503906" style="stop-color:rgb(64.723206%,18.772888%,59.983826%);stop-opacity:1;"/>
<stop offset="0.507812" style="stop-color:rgb(65.457153%,18.435669%,59.864807%);stop-opacity:1;"/>
<stop offset="0.511719" style="stop-color:rgb(66.191101%,18.093872%,59.745789%);stop-opacity:1;"/>
<stop offset="0.515625" style="stop-color:rgb(66.923523%,17.749023%,59.625244%);stop-opacity:1;"/>
<stop offset="0.519531" style="stop-color:rgb(67.654419%,17.402649%,59.5047%);stop-opacity:1;"/>
<stop offset="0.523438" style="stop-color:rgb(68.383789%,17.053223%,59.384155%);stop-opacity:1;"/>
<stop offset="0.527344" style="stop-color:rgb(69.113159%,16.700745%,59.262085%);stop-opacity:1;"/>
<stop offset="0.53125" style="stop-color:rgb(69.839478%,16.345215%,59.140015%);stop-opacity:1;"/>
<stop offset="0.535156" style="stop-color:rgb(70.565796%,15.988159%,59.017944%);stop-opacity:1;"/>
<stop offset="0.539062" style="stop-color:rgb(71.289062%,15.626526%,58.894348%);stop-opacity:1;"/>
<stop offset="0.542969" style="stop-color:rgb(72.013855%,15.263367%,58.772278%);stop-opacity:1;"/>
<stop offset="0.546875" style="stop-color:rgb(72.737122%,14.897156%,58.648682%);stop-opacity:1;"/>
<stop offset="0.550781" style="stop-color:rgb(73.457336%,14.527893%,58.525085%);stop-opacity:1;"/>
<stop offset="0.554687" style="stop-color:rgb(74.176025%,14.155579%,58.401489%);stop-opacity:1;"/>
<stop offset="0.558594" style="stop-color:rgb(74.894714%,13.781738%,58.276367%);stop-opacity:1;"/>
<stop offset="0.5625" style="stop-color:rgb(75.611877%,13.404846%,58.151245%);stop-opacity:1;"/>
<stop offset="0.566406" style="stop-color:rgb(76.327515%,13.024902%,58.026123%);stop-opacity:1;"/>
<stop offset="0.570312" style="stop-color:rgb(77.0401%,12.641907%,57.899475%);stop-opacity:1;"/>
<stop offset="0.574219" style="stop-color:rgb(77.754211%,12.255859%,57.772827%);stop-opacity:1;"/>
<stop offset="0.578125" style="stop-color:rgb(78.465271%,11.868286%,57.646179%);stop-opacity:1;"/>
<stop offset="0.582031" style="stop-color:rgb(79.176331%,11.477661%,57.518005%);stop-opacity:1;"/>
<stop offset="0.585937" style="stop-color:rgb(79.884338%,11.082458%,57.389832%);stop-opacity:1;"/>
<stop offset="0.589844" style="stop-color:rgb(80.592346%,10.68573%,57.261658%);stop-opacity:1;"/>
<stop offset="0.59375" style="stop-color:rgb(81.298828%,10.28595%,57.133484%);stop-opacity:1;"/>
<stop offset="0.597656" style="stop-color:rgb(82.003784%,9.884644%,57.003784%);stop-opacity:1;"/>
<stop offset="0.601562" style="stop-color:rgb(82.707214%,9.47876%,56.87561%);stop-opacity:1;"/>
<stop offset="0.605469" style="stop-color:rgb(83.410645%,9.07135%,56.745911%);stop-opacity:1;"/>
<stop offset="0.609375" style="stop-color:rgb(84.111023%,8.660889%,56.616211%);stop-opacity:1;"/>
<stop offset="0.613281" style="stop-color:rgb(84.811401%,8.248901%,56.484985%);stop-opacity:1;"/>
<stop offset="0.617187" style="stop-color:rgb(85.510254%,7.832336%,56.35376%);stop-opacity:1;"/>
<stop offset="0.621094" style="stop-color:rgb(86.207581%,7.41272%,56.222534%);stop-opacity:1;"/>
<stop offset="0.625" style="stop-color:rgb(86.903381%,6.990051%,56.089783%);stop-opacity:1;"/>
<stop offset="0.628906" style="stop-color:rgb(87.597656%,6.565857%,55.957031%);stop-opacity:1;"/>
<stop offset="0.632812" style="stop-color:rgb(88.291931%,6.138611%,55.82428%);stop-opacity:1;"/>
<stop offset="0.636719" style="stop-color:rgb(88.98468%,5.709839%,55.690002%);stop-opacity:1;"/>
<stop offset="0.640625" style="stop-color:rgb(89.674377%,5.276489%,55.557251%);stop-opacity:1;"/>
<stop offset="0.644531" style="stop-color:rgb(90.087891%,5.114746%,55.360413%);stop-opacity:1;"/>
<stop offset="0.648437" style="stop-color:rgb(90.499878%,4.954529%,55.1651%);stop-opacity:1;"/>
<stop offset="0.652344" style="stop-color:rgb(90.481567%,5.221558%,54.870605%);stop-opacity:1;"/>
<stop offset="0.65625" style="stop-color:rgb(90.460205%,5.485535%,54.574585%);stop-opacity:1;"/>
<stop offset="0.660156" style="stop-color:rgb(90.440369%,5.751038%,54.278564%);stop-opacity:1;"/>
<stop offset="0.664062" style="stop-color:rgb(90.420532%,6.015015%,53.979492%);stop-opacity:1;"/>
<stop offset="0.667969" style="stop-color:rgb(90.400696%,6.277466%,53.678894%);stop-opacity:1;"/>
<stop offset="0.671875" style="stop-color:rgb(90.380859%,6.539917%,53.375244%);stop-opacity:1;"/>
<stop offset="0.675781" style="stop-color:rgb(90.362549%,6.803894%,53.071594%);stop-opacity:1;"/>
<stop offset="0.679687" style="stop-color:rgb(90.341187%,7.064819%,52.766418%);stop-opacity:1;"/>
<stop offset="0.683594" style="stop-color:rgb(90.322876%,7.325745%,52.459717%);stop-opacity:1;"/>
<stop offset="0.6875" style="stop-color:rgb(90.301514%,7.585144%,52.149963%);stop-opacity:1;"/>
<stop offset="0.691406" style="stop-color:rgb(90.283203%,7.846069%,51.841736%);stop-opacity:1;"/>
<stop offset="0.695312" style="stop-color:rgb(90.261841%,8.105469%,51.527405%);stop-opacity:1;"/>
<stop offset="0.699219" style="stop-color:rgb(90.24353%,8.363342%,51.213074%);stop-opacity:1;"/>
<stop offset="0.703125" style="stop-color:rgb(90.220642%,8.61969%,50.897217%);stop-opacity:1;"/>
<stop offset="0.707031" style="stop-color:rgb(90.202332%,8.877563%,50.58136%);stop-opacity:1;"/>
<stop offset="0.710937" style="stop-color:rgb(90.180969%,9.133911%,50.260925%);stop-opacity:1;"/>
<stop offset="0.714844" style="stop-color:rgb(90.161133%,9.390259%,49.942017%);stop-opacity:1;"/>
<stop offset="0.71875" style="stop-color:rgb(90.141296%,9.645081%,49.61853%);stop-opacity:1;"/>
<stop offset="0.722656" style="stop-color:rgb(90.12146%,9.899902%,49.295044%);stop-opacity:1;"/>
<stop offset="0.726562" style="stop-color:rgb(90.100098%,10.153198%,48.968506%);stop-opacity:1;"/>
<stop offset="0.730469" style="stop-color:rgb(90.081787%,10.40802%,48.641968%);stop-opacity:1;"/>
<stop offset="0.734375" style="stop-color:rgb(90.060425%,10.65979%,48.312378%);stop-opacity:1;"/>
<stop offset="0.738281" style="stop-color:rgb(90.040588%,10.913086%,47.982788%);stop-opacity:1;"/>
<stop offset="0.742187" style="stop-color:rgb(90.0177%,11.16333%,47.648621%);stop-opacity:1;"/>
<stop offset="0.746094" style="stop-color:rgb(89.99939%,11.413574%,47.314453%);stop-opacity:1;"/>
<stop offset="0.75" style="stop-color:rgb(89.979553%,11.663818%,46.97876%);stop-opacity:1;"/>
<stop offset="0.753906" style="stop-color:rgb(89.959717%,11.914062%,46.643066%);stop-opacity:1;"/>
<stop offset="0.757812" style="stop-color:rgb(89.938354%,12.162781%,46.302795%);stop-opacity:1;"/>
<stop offset="0.761719" style="stop-color:rgb(89.918518%,12.411499%,45.96405%);stop-opacity:1;"/>
<stop offset="0.765625" style="stop-color:rgb(89.89563%,12.658691%,45.620728%);stop-opacity:1;"/>
<stop offset="0.769531" style="stop-color:rgb(89.875793%,12.905884%,45.275879%);stop-opacity:1;"/>
<stop offset="0.773437" style="stop-color:rgb(89.854431%,13.15155%,44.929504%);stop-opacity:1;"/>
<stop offset="0.777344" style="stop-color:rgb(89.834595%,13.398743%,44.58313%);stop-opacity:1;"/>
<stop offset="0.78125" style="stop-color:rgb(89.813232%,13.642883%,44.233704%);stop-opacity:1;"/>
<stop offset="0.785156" style="stop-color:rgb(89.793396%,13.88855%,43.884277%);stop-opacity:1;"/>
<stop offset="0.789062" style="stop-color:rgb(89.772034%,14.13269%,43.531799%);stop-opacity:1;"/>
<stop offset="0.792969" style="stop-color:rgb(89.752197%,14.376831%,43.177795%);stop-opacity:1;"/>
<stop offset="0.796875" style="stop-color:rgb(89.730835%,14.61792%,42.822266%);stop-opacity:1;"/>
<stop offset="0.800781" style="stop-color:rgb(89.709473%,14.860535%,42.46521%);stop-opacity:1;"/>
<stop offset="0.804688" style="stop-color:rgb(89.68811%,15.101624%,42.106628%);stop-opacity:1;"/>
<stop offset="0.808594" style="stop-color:rgb(89.668274%,15.342712%,41.746521%);stop-opacity:1;"/>
<stop offset="0.8125" style="stop-color:rgb(89.645386%,15.582275%,41.383362%);stop-opacity:1;"/>
<stop offset="0.816406" style="stop-color:rgb(89.625549%,15.823364%,41.020203%);stop-opacity:1;"/>
<stop offset="0.820312" style="stop-color:rgb(89.602661%,16.061401%,40.653992%);stop-opacity:1;"/>
<stop offset="0.824219" style="stop-color:rgb(89.582825%,16.299438%,40.287781%);stop-opacity:1;"/>
<stop offset="0.828125" style="stop-color:rgb(89.562988%,16.537476%,39.920044%);stop-opacity:1;"/>
<stop offset="0.832031" style="stop-color:rgb(89.541626%,16.775513%,39.549255%);stop-opacity:1;"/>
<stop offset="0.835937" style="stop-color:rgb(89.518738%,17.010498%,39.176941%);stop-opacity:1;"/>
<stop offset="0.839844" style="stop-color:rgb(89.497375%,17.248535%,38.804626%);stop-opacity:1;"/>
<stop offset="0.84375" style="stop-color:rgb(89.476013%,17.483521%,38.427734%);stop-opacity:1;"/>
<stop offset="0.847656" style="stop-color:rgb(89.456177%,17.71698%,38.052368%);stop-opacity:1;"/>
<stop offset="0.851562" style="stop-color:rgb(89.431763%,17.950439%,37.67395%);stop-opacity:1;"/>
<stop offset="0.855469" style="stop-color:rgb(89.411926%,18.185425%,37.294006%);stop-opacity:1;"/>
<stop offset="0.859375" style="stop-color:rgb(89.389038%,18.417358%,36.912537%);stop-opacity:1;"/>
<stop offset="0.863281" style="stop-color:rgb(89.369202%,18.650818%,36.529541%);stop-opacity:1;"/>
<stop offset="0.867187" style="stop-color:rgb(89.347839%,18.882751%,36.143494%);stop-opacity:1;"/>
<stop offset="0.871094" style="stop-color:rgb(89.326477%,19.114685%,35.758972%);stop-opacity:1;"/>
<stop offset="0.875" style="stop-color:rgb(89.303589%,19.343567%,35.369873%);stop-opacity:1;"/>
<stop offset="0.878906" style="stop-color:rgb(89.282227%,19.573975%,34.980774%);stop-opacity:1;"/>
<stop offset="0.882812" style="stop-color:rgb(89.260864%,19.802856%,34.588623%);stop-opacity:1;"/>
<stop offset="0.886719" style="stop-color:rgb(89.239502%,20.031738%,34.196472%);stop-opacity:1;"/>
<stop offset="0.890625" style="stop-color:rgb(89.216614%,20.259094%,33.80127%);stop-opacity:1;"/>
<stop offset="0.894531" style="stop-color:rgb(89.195251%,20.487976%,33.406067%);stop-opacity:1;"/>
<stop offset="0.898437" style="stop-color:rgb(89.172363%,20.713806%,33.007812%);stop-opacity:1;"/>
<stop offset="0.902344" style="stop-color:rgb(89.151001%,20.939636%,32.609558%);stop-opacity:1;"/>
<stop offset="0.90625" style="stop-color:rgb(89.129639%,21.165466%,32.208252%);stop-opacity:1;"/>
<stop offset="0.910156" style="stop-color:rgb(89.108276%,21.391296%,31.80542%);stop-opacity:1;"/>
<stop offset="0.914062" style="stop-color:rgb(89.085388%,21.614075%,31.401062%);stop-opacity:1;"/>
<stop offset="0.917969" style="stop-color:rgb(89.064026%,21.839905%,30.995178%);stop-opacity:1;"/>
<stop offset="0.921875" style="stop-color:rgb(89.039612%,22.062683%,30.587769%);stop-opacity:1;"/>
<stop offset="0.925781" style="stop-color:rgb(89.01825%,22.283936%,30.180359%);stop-opacity:1;"/>
<stop offset="0.929688" style="stop-color:rgb(88.995361%,22.505188%,29.768372%);stop-opacity:1;"/>
<stop offset="0.933594" style="stop-color:rgb(88.973999%,22.727966%,29.356384%);stop-opacity:1;"/>
<stop offset="0.9375" style="stop-color:rgb(88.951111%,22.947693%,28.942871%);stop-opacity:1;"/>
<stop offset="0.941406" style="stop-color:rgb(88.929749%,23.168945%,28.527832%);stop-opacity:1;"/>
<stop offset="0.945312" style="stop-color:rgb(88.90686%,23.388672%,28.111267%);stop-opacity:1;"/>
<stop offset="0.953125" style="stop-color:rgb(88.902283%,23.431396%,28.030396%);stop-opacity:1;"/>
<stop offset="0.96875" style="stop-color:rgb(88.897705%,23.472595%,27.949524%);stop-opacity:1;"/>
<stop offset="1" style="stop-color:rgb(88.897705%,23.472595%,27.949524%);stop-opacity:1;"/>
</linearGradient>
</defs>
<g id="surface1">
<g clip-path="url(#clip1)" clip-rule="nonzero">
<g clip-path="url(#clip2)" clip-rule="nonzero">
<path style=" stroke:none;fill-rule:nonzero;fill:url(#radial0);" d="M 0.0976562 1.59375 L 0.0976562 501.308594 L 598.984375 501.308594 L 598.984375 1.59375 Z M 0.0976562 1.59375 "/>
</g>
</g>
<path style=" stroke:none;fill-rule:evenodd;fill:rgb(100%,100%,100%);fill-opacity:1;" d="M 292.546875 480.535156 C 370.015625 480.535156 433.199219 475.960938 433.199219 470.359375 C 433.199219 464.753906 370.015625 460.179688 292.546875 460.179688 C 215.085938 460.179688 151.910156 464.753906 151.910156 470.359375 C 151.910156 475.960938 215.085938 480.535156 292.546875 480.535156 "/>
<path style=" stroke:none;fill-rule:evenodd;fill:rgb(99.136353%,99.121094%,99.125671%);fill-opacity:1;" d="M 292.546875 460.34375 C 368.605469 460.34375 430.28125 464.8125 430.28125 470.3125 C 430.28125 475.824219 368.605469 480.277344 292.546875 480.277344 C 216.503906 480.277344 154.828125 475.824219 154.828125 470.3125 C 154.828125 464.8125 216.5 460.34375 292.546875 460.34375 "/>
<path style=" stroke:none;fill-rule:evenodd;fill:rgb(98.274231%,98.243713%,98.251343%);fill-opacity:1;" d="M 292.546875 460.519531 C 366.996094 460.519531 427.371094 464.878906 427.371094 470.261719 C 427.371094 475.65625 366.996094 480.023438 292.546875 480.023438 C 218.117188 480.023438 157.75 475.65625 157.75 470.261719 C 157.75 464.878906 218.117188 460.519531 292.546875 460.519531 "/>
<path style=" stroke:none;fill-rule:evenodd;fill:rgb(98.274231%,98.243713%,98.251343%);fill-opacity:1;" d="M 292.546875 460.671875 C 365.390625 460.671875 424.441406 464.945312 424.441406 470.21875 C 424.441406 475.496094 365.390625 479.769531 292.546875 479.769531 C 219.730469 479.769531 160.664062 475.496094 160.664062 470.21875 C 160.664062 464.945312 219.730469 460.671875 292.546875 460.671875 "/>
<path style=" stroke:none;fill-rule:evenodd;fill:rgb(97.410583%,97.364807%,97.375488%);fill-opacity:1;" d="M 292.546875 460.84375 C 363.773438 460.84375 421.53125 465.027344 421.53125 470.175781 C 421.53125 475.324219 363.773438 479.503906 292.546875 479.503906 C 221.339844 479.503906 163.585938 475.324219 163.585938 470.175781 C 163.585938 465.027344 221.339844 460.84375 292.546875 460.84375 "/>
<path style=" stroke:none;fill-rule:evenodd;fill:rgb(96.548462%,96.485901%,96.50116%);fill-opacity:1;" d="M 292.546875 461.007812 C 362.160156 461.007812 418.605469 465.09375 418.605469 470.132812 C 418.605469 475.167969 362.160156 479.257812 292.546875 479.257812 C 222.957031 479.257812 166.503906 475.167969 166.503906 470.132812 C 166.503906 465.09375 222.953125 461.007812 292.546875 461.007812 "/>
<path style=" stroke:none;fill-rule:evenodd;fill:rgb(95.68634%,95.608521%,95.628357%);fill-opacity:1;" d="M 292.546875 461.175781 C 360.550781 461.175781 415.6875 465.15625 415.6875 470.085938 C 415.6875 475 360.550781 478.992188 292.546875 478.992188 C 224.566406 478.992188 169.425781 475 169.425781 470.085938 C 169.421875 465.15625 224.566406 461.175781 292.546875 461.175781 "/>
<path style=" stroke:none;fill-rule:evenodd;fill:rgb(95.68634%,95.608521%,95.628357%);fill-opacity:1;" d="M 292.546875 461.339844 C 358.9375 461.339844 412.769531 465.238281 412.769531 470.035156 C 412.769531 474.84375 358.9375 478.734375 292.546875 478.734375 C 226.171875 478.734375 172.34375 474.84375 172.34375 470.035156 C 172.34375 465.238281 226.171875 461.339844 292.546875 461.339844 "/>
<path style=" stroke:none;fill-rule:evenodd;fill:rgb(94.822693%,94.729614%,94.752502%);fill-opacity:1;" d="M 292.546875 461.503906 C 357.324219 461.503906 409.847656 465.300781 409.847656 469.996094 C 409.847656 474.6875 357.324219 478.484375 292.546875 478.484375 C 227.789062 478.484375 175.261719 474.6875 175.261719 469.996094 C 175.261719 465.300781 227.785156 461.503906 292.546875 461.503906 "/>
<path style=" stroke:none;fill-rule:evenodd;fill:rgb(93.960571%,93.850708%,93.878174%);fill-opacity:1;" d="M 292.546875 461.671875 C 355.710938 461.671875 406.929688 465.375 406.929688 469.949219 C 406.929688 474.519531 355.710938 478.226562 292.546875 478.226562 C 229.402344 478.226562 178.183594 474.519531 178.183594 469.949219 C 178.183594 465.375 229.398438 461.671875 292.546875 461.671875 "/>
<path style=" stroke:none;fill-rule:evenodd;fill:rgb(93.960571%,93.850708%,93.878174%);fill-opacity:1;" d="M 292.546875 461.828125 C 354.097656 461.828125 404.011719 465.445312 404.011719 469.90625 C 404.011719 474.359375 354.097656 477.976562 292.546875 477.976562 C 231.015625 477.976562 181.105469 474.359375 181.105469 469.90625 C 181.105469 465.445312 231.011719 461.828125 292.546875 461.828125 "/>
<path style=" stroke:none;fill-rule:evenodd;fill:rgb(93.09845%,92.973328%,93.003845%);fill-opacity:1;" d="M 292.546875 462.011719 C 352.484375 462.011719 401.085938 465.519531 401.085938 469.855469 C 401.085938 474.195312 352.484375 477.710938 292.546875 477.710938 C 232.621094 477.710938 184.019531 474.195312 184.019531 469.855469 C 184.015625 465.519531 232.617188 462.011719 292.546875 462.011719 "/>
<path style=" stroke:none;fill-rule:evenodd;fill:rgb(92.234802%,92.094421%,92.129517%);fill-opacity:1;" d="M 292.546875 462.171875 C 350.878906 462.171875 398.179688 465.59375 398.179688 469.8125 C 398.179688 474.035156 350.878906 477.453125 292.546875 477.453125 C 234.234375 477.453125 186.941406 474.035156 186.941406 469.8125 C 186.941406 465.59375 234.230469 462.171875 292.546875 462.171875 "/>
<path style=" stroke:none;fill-rule:evenodd;fill:rgb(91.372681%,91.215515%,91.255188%);fill-opacity:1;" d="M 292.546875 462.339844 C 349.261719 462.339844 395.253906 465.660156 395.253906 469.769531 C 395.253906 473.871094 349.261719 477.195312 292.546875 477.195312 C 235.847656 477.195312 189.855469 473.871094 189.855469 469.769531 C 189.855469 465.660156 235.847656 462.339844 292.546875 462.339844 "/>
<path style=" stroke:none;fill-rule:evenodd;fill:rgb(90.510559%,90.338135%,90.380859%);fill-opacity:1;" d="M 292.546875 462.503906 C 347.648438 462.503906 392.332031 465.742188 392.332031 469.726562 C 392.332031 473.703125 347.648438 476.941406 292.546875 476.941406 C 237.460938 476.941406 192.777344 473.703125 192.777344 469.726562 C 192.777344 465.742188 237.460938 462.503906 292.546875 462.503906 "/>
<path style=" stroke:none;fill-rule:evenodd;fill:rgb(90.510559%,90.338135%,90.380859%);fill-opacity:1;" d="M 292.546875 462.667969 C 346.042969 462.667969 389.410156 465.804688 389.410156 469.671875 C 389.410156 473.550781 346.042969 476.683594 292.546875 476.683594 C 239.074219 476.6875 195.699219 473.550781 195.699219 469.671875 C 195.699219 465.804688 239.070312 462.667969 292.546875 462.667969 "/>
<path style=" stroke:none;fill-rule:evenodd;fill:rgb(89.646912%,89.459229%,89.505005%);fill-opacity:1;" d="M 292.546875 462.828125 C 344.425781 462.828125 386.496094 465.878906 386.496094 469.628906 C 386.496094 473.390625 344.425781 476.425781 292.546875 476.425781 C 240.683594 476.425781 198.621094 473.390625 198.621094 469.628906 C 198.621094 465.878906 240.683594 462.828125 292.546875 462.828125 "/>
<path style=" stroke:none;fill-rule:evenodd;fill:rgb(88.78479%,88.580322%,88.632202%);fill-opacity:1;" d="M 292.546875 462.996094 C 342.8125 462.996094 383.570312 465.949219 383.570312 469.585938 C 383.570312 473.222656 342.816406 476.171875 292.546875 476.171875 C 242.296875 476.171875 201.535156 473.222656 201.535156 469.585938 C 201.535156 465.949219 242.296875 462.996094 292.546875 462.996094 "/>
<path style=" stroke:none;fill-rule:evenodd;fill:rgb(88.78479%,88.580322%,88.632202%);fill-opacity:1;" d="M 292.546875 463.160156 C 341.207031 463.160156 380.648438 466.019531 380.648438 469.542969 C 380.648438 473.058594 341.207031 475.910156 292.546875 475.910156 C 243.914062 475.910156 204.464844 473.058594 204.464844 469.542969 C 204.460938 466.019531 243.914062 463.160156 292.546875 463.160156 "/>
<path style=" stroke:none;fill-rule:evenodd;fill:rgb(87.921143%,87.701416%,87.756348%);fill-opacity:1;" d="M 292.546875 463.328125 C 339.59375 463.328125 377.730469 466.089844 377.730469 469.496094 C 377.730469 472.902344 339.59375 475.660156 292.546875 475.660156 C 245.523438 475.660156 207.375 472.902344 207.375 469.496094 C 207.375 466.089844 245.523438 463.328125 292.546875 463.328125 "/>
<path style=" stroke:none;fill-rule:evenodd;fill:rgb(87.059021%,86.824036%,86.882019%);fill-opacity:1;" d="M 292.546875 463.5 C 337.976562 463.5 374.820312 466.15625 374.820312 469.453125 C 374.820312 472.742188 337.980469 475.398438 292.546875 475.398438 C 247.136719 475.398438 210.300781 472.742188 210.300781 469.453125 C 210.300781 466.15625 247.136719 463.5 292.546875 463.5 "/>
<path style=" stroke:none;fill-rule:evenodd;fill:rgb(86.196899%,85.945129%,86.00769%);fill-opacity:1;" d="M 292.546875 463.664062 C 336.359375 463.664062 371.890625 466.234375 371.890625 469.40625 C 371.890625 472.574219 336.359375 475.144531 292.546875 475.144531 C 248.75 475.144531 213.21875 472.574219 213.21875 469.40625 C 213.21875 466.234375 248.75 463.664062 292.546875 463.664062 "/>
<path style=" stroke:none;fill-rule:evenodd;fill:rgb(86.196899%,85.945129%,86.00769%);fill-opacity:1;" d="M 292.546875 463.828125 C 334.75 463.828125 368.972656 466.308594 368.972656 469.367188 C 368.972656 472.417969 334.75 474.890625 292.546875 474.890625 C 250.359375 474.890625 216.136719 472.417969 216.136719 469.367188 C 216.136719 466.308594 250.355469 463.828125 292.546875 463.828125 "/>
<path style=" stroke:none;fill-rule:evenodd;fill:rgb(85.333252%,85.066223%,85.133362%);fill-opacity:1;" d="M 292.546875 463.996094 C 333.136719 463.996094 366.054688 466.378906 366.054688 469.320312 C 366.054688 472.246094 333.136719 474.632812 292.546875 474.632812 C 251.972656 474.632812 219.058594 472.246094 219.058594 469.320312 C 219.058594 466.378906 251.972656 463.996094 292.546875 463.996094 "/>
<path style=" stroke:none;fill-rule:evenodd;fill:rgb(84.47113%,84.188843%,84.259033%);fill-opacity:1;" d="M 292.546875 464.164062 C 331.527344 464.164062 363.132812 466.445312 363.132812 469.261719 C 363.132812 472.09375 331.527344 474.378906 292.546875 474.378906 C 253.582031 474.378906 221.976562 472.09375 221.976562 469.261719 C 221.976562 466.445312 253.582031 464.164062 292.546875 464.164062 "/>
<path style=" stroke:none;fill-rule:evenodd;fill:rgb(84.47113%,84.188843%,84.259033%);fill-opacity:1;" d="M 292.546875 464.328125 C 329.917969 464.328125 360.214844 466.523438 360.214844 469.214844 C 360.214844 471.929688 329.917969 474.121094 292.546875 474.121094 C 255.195312 474.121094 224.894531 471.929688 224.894531 469.214844 C 224.894531 466.523438 255.195312 464.328125 292.546875 464.328125 "/>
<path style=" stroke:none;fill-rule:evenodd;fill:rgb(83.609009%,83.311462%,83.384705%);fill-opacity:1;" d="M 292.546875 464.496094 C 328.304688 464.496094 357.296875 466.589844 357.296875 469.183594 C 357.296875 471.765625 328.304688 473.863281 292.546875 473.863281 C 256.800781 473.863281 227.820312 471.765625 227.820312 469.183594 C 227.820312 466.589844 256.800781 464.496094 292.546875 464.496094 "/>
<path style=" stroke:none;fill-rule:evenodd;fill:rgb(82.745361%,82.43103%,82.50885%);fill-opacity:1;" d="M 292.546875 464.660156 C 326.6875 464.660156 354.371094 466.660156 354.371094 469.132812 C 354.371094 471.605469 326.6875 473.613281 292.546875 473.613281 C 258.417969 473.613281 230.730469 471.605469 230.730469 469.132812 C 230.730469 466.660156 258.417969 464.660156 292.546875 464.660156 "/>
<path style=" stroke:none;fill-rule:evenodd;fill:rgb(81.88324%,81.55365%,81.636047%);fill-opacity:1;" d="M 292.546875 464.820312 C 325.070312 464.820312 351.457031 466.730469 351.457031 469.089844 C 351.457031 471.4375 325.070312 473.351562 292.546875 473.351562 C 260.027344 473.351562 233.660156 471.4375 233.660156 469.089844 C 233.660156 466.730469 260.027344 464.820312 292.546875 464.820312 "/>
<path style=" stroke:none;fill-rule:evenodd;fill:rgb(81.021118%,80.67627%,80.761719%);fill-opacity:1;" d="M 292.546875 464.992188 C 323.472656 464.992188 348.542969 466.808594 348.542969 469.046875 C 348.542969 471.273438 323.472656 473.085938 292.546875 473.085938 C 261.640625 473.085938 236.570312 471.273438 236.570312 469.046875 C 236.570312 466.808594 261.640625 464.992188 292.546875 464.992188 "/>
<path style=" stroke:none;fill-rule:evenodd;fill:rgb(81.021118%,80.67627%,80.761719%);fill-opacity:1;" d="M 292.546875 465.15625 C 321.855469 465.15625 345.621094 466.875 345.621094 468.992188 C 345.621094 471.125 321.855469 472.839844 292.546875 472.839844 C 263.257812 472.839844 239.492188 471.125 239.488281 468.992188 C 239.488281 466.875 263.253906 465.15625 292.546875 465.15625 "/>
<path style=" stroke:none;fill-rule:evenodd;fill:rgb(80.157471%,79.795837%,79.885864%);fill-opacity:1;" d="M 292.546875 465.324219 C 320.238281 465.320312 342.699219 466.9375 342.699219 468.949219 C 342.699219 470.960938 320.238281 472.574219 292.546875 472.574219 C 264.867188 472.574219 242.417969 470.960938 242.414062 468.949219 C 242.414062 466.9375 264.867188 465.324219 292.546875 465.324219 "/>
<path style=" stroke:none;fill-rule:evenodd;fill:rgb(79.295349%,78.918457%,79.011536%);fill-opacity:1;" d="M 292.546875 465.488281 C 318.636719 465.488281 339.777344 467.019531 339.777344 468.898438 C 339.777344 470.792969 318.640625 472.324219 292.546875 472.324219 C 266.484375 472.324219 245.332031 470.792969 245.332031 468.898438 C 245.332031 467.019531 266.484375 465.488281 292.546875 465.488281 "/>
<path style=" stroke:none;fill-rule:evenodd;fill:rgb(79.295349%,78.918457%,79.011536%);fill-opacity:1;" d="M 292.546875 465.660156 C 317.019531 465.660156 336.855469 467.085938 336.855469 468.859375 C 336.855469 470.625 317.023438 472.066406 292.546875 472.066406 C 268.089844 472.066406 248.25 470.625 248.25 468.859375 C 248.25 467.085938 268.089844 465.660156 292.546875 465.660156 "/>
<path style=" stroke:none;fill-rule:evenodd;fill:rgb(78.431702%,78.039551%,78.137207%);fill-opacity:1;" d="M 292.546875 465.820312 C 315.414062 465.820312 333.941406 467.160156 333.941406 468.8125 C 333.941406 470.472656 315.414062 471.816406 292.546875 471.816406 C 269.707031 471.816406 251.179688 470.472656 251.179688 468.8125 C 251.179688 467.160156 269.707031 465.820312 292.546875 465.820312 "/>
<path style=" stroke:none;fill-rule:evenodd;fill:rgb(77.56958%,77.160645%,77.262878%);fill-opacity:1;" d="M 292.546875 465.984375 C 313.800781 465.984375 331.019531 467.238281 331.019531 468.773438 C 331.019531 470.308594 313.800781 471.546875 292.546875 471.546875 C 271.316406 471.546875 254.085938 470.308594 254.085938 468.773438 C 254.085938 467.238281 271.316406 465.984375 292.546875 465.984375 "/>
<path style=" stroke:none;fill-rule:evenodd;fill:rgb(76.707458%,76.283264%,76.38855%);fill-opacity:1;" d="M 292.546875 466.152344 C 312.183594 466.152344 328.101562 467.300781 328.101562 468.71875 C 328.101562 470.136719 312.1875 471.296875 292.546875 471.296875 C 272.921875 471.296875 257.011719 470.136719 257.011719 468.71875 C 257.011719 467.300781 272.921875 466.152344 292.546875 466.152344 "/>
<path style=" stroke:none;fill-rule:evenodd;fill:rgb(76.707458%,76.283264%,76.38855%);fill-opacity:1;" d="M 292.546875 466.320312 C 310.574219 466.320312 325.179688 467.378906 325.179688 468.679688 C 325.179688 469.984375 310.574219 471.042969 292.546875 471.042969 C 274.539062 471.042969 259.929688 469.984375 259.929688 468.679688 C 259.929688 467.378906 274.539062 466.320312 292.546875 466.320312 "/>
<path style=" stroke:none;fill-rule:evenodd;fill:rgb(75.843811%,75.404358%,75.512695%);fill-opacity:1;" d="M 292.546875 466.480469 C 308.957031 466.480469 322.261719 467.445312 322.261719 468.636719 C 322.261719 469.8125 308.957031 470.78125 292.546875 470.78125 C 276.148438 470.78125 262.847656 469.8125 262.847656 468.636719 C 262.847656 467.445312 276.148438 466.480469 292.546875 466.480469 "/>
<path style=" stroke:none;fill-rule:evenodd;fill:rgb(74.981689%,74.526978%,74.639893%);fill-opacity:1;" d="M 292.546875 466.65625 C 307.34375 466.65625 319.34375 467.527344 319.34375 468.585938 C 319.34375 469.664062 307.34375 470.535156 292.546875 470.535156 C 277.765625 470.535156 265.773438 469.664062 265.773438 468.585938 C 265.773438 467.527344 277.765625 466.65625 292.546875 466.65625 "/>
<path style=" stroke:none;fill-rule:evenodd;fill:rgb(74.119568%,73.648071%,73.765564%);fill-opacity:1;" d="M 292.546875 466.816406 C 305.730469 466.816406 316.425781 467.582031 316.425781 468.539062 C 316.425781 469.496094 305.730469 470.261719 292.546875 470.261719 C 279.378906 470.261719 268.691406 469.496094 268.691406 468.539062 C 268.691406 467.582031 279.378906 466.816406 292.546875 466.816406 "/>
<path style=" stroke:none;fill-rule:evenodd;fill:rgb(74.119568%,73.648071%,73.765564%);fill-opacity:1;" d="M 292.546875 470.019531 C 304.097656 470.019531 313.503906 469.332031 313.503906 468.496094 C 313.503906 467.660156 304.097656 466.984375 292.546875 466.984375 C 281.015625 466.984375 271.605469 467.660156 271.605469 468.496094 C 271.605469 469.332031 281.015625 470.019531 292.546875 470.019531 "/>
<g clip-path="url(#clip3)" clip-rule="nonzero">
<g clip-path="url(#clip4)" clip-rule="nonzero">
<path style=" stroke:none;fill-rule:nonzero;fill:url(#linear0);" d="M 63.984375 35.550781 L 75.4375 475.074219 L 535.316406 463.089844 L 523.863281 23.566406 Z M 63.984375 35.550781 "/>
</g>
</g>
</g>
</svg>
